<svg width="28" height="28" viewBox="0 0 28 28" fill="none" xmlns="http://www.w3.org/2000/svg">
<path fill-rule="evenodd" clip-rule="evenodd" d="M13.9998 0.00140005C6.26773 0.00140005 1.08834e-05 6.26912 1.08834e-05 14.0012C-0.002565 16.0641 0.452134 18.1019 1.33139 19.9679L0.0294104 26.3197C-0.0169444 26.5465 -0.00634211 26.7812 0.0602681 27.0029C0.126878 27.2246 0.247418 27.4263 0.411097 27.59C0.574776 27.7536 0.776486 27.8742 0.998172 27.9408C1.21986 28.0074 1.4546 28.018 1.68139 27.9716L8.0331 26.6697C9.84468 27.5236 11.8691 27.9996 13.9998 27.9996C21.7319 27.9996 27.9996 21.7333 27.9996 13.9998C27.9996 6.26912 21.7319 0 13.9998 0V0.00140005Z" fill="black"/>
</svg>
