<svg width="191" height="168" viewBox="0 0 191 168" fill="none" xmlns="http://www.w3.org/2000/svg">
<path d="M145.961 97.7508C145.069 96.297 143.938 94.931 143.566 93.2473C142.904 90.2451 144.802 87.3611 145.833 84.467C147.265 80.4471 146.873 75.8423 145.036 72.0522C141.989 65.7705 134.832 62.9068 131.546 56.7197C130.989 55.6682 130.536 54.5255 130.536 53.3354C130.536 52.3988 130.813 51.4894 130.992 50.5698C132.174 44.5584 129.023 40.312 125.159 36.238C125.47 12.1555 105.192 9.37302 105.188 9.37302C103.202 9.03492 97.7039 8.35535 91.4319 9.74492C89.3278 3.4868 83.0052 -0.573706 76.2435 0.403385C68.6273 1.50219 63.3416 8.57511 64.4393 16.1991C64.723 18.1736 65.4289 20.0804 66.5097 21.7574C67.0332 22.5688 67.6377 23.3261 68.3166 24.0091C68.8773 24.5771 70.4545 25.3446 70.7821 25.9869C71.6501 27.674 69.7014 29.6756 68.8739 30.9941C67.7424 32.8029 66.7191 34.676 65.5775 36.478C63.1896 40.2511 60.0722 43.4157 56.1105 45.5254C51.9055 47.7636 47.4574 49.9679 44.4751 53.9439C41.7968 57.5142 40.4593 62.2239 41.1348 66.6935C41.6212 69.9121 43.0161 73.293 41.7191 76.2818C40.993 77.9587 39.5407 79.1488 38.318 80.4809C37.0954 81.813 36.0146 83.5779 36.3456 85.3731C36.7847 87.7533 39.3684 88.869 41.6245 89.4404C45.0256 90.2958 48.5011 90.8029 51.9697 91.3033C56.6272 91.9795 61.2847 92.6455 65.9456 93.2913C65.6822 93.8627 65.4491 94.4543 65.2668 95.0798C64.7534 96.821 64.8176 99.049 66.2766 100.043C66.9251 100.486 67.7255 100.587 68.4956 100.675C89.3987 103.103 110.363 104.3 131.364 105.314C134.667 105.473 137.98 105.632 141.283 105.453C143.479 105.334 146.072 104.763 146.907 102.636C147.538 101.034 146.853 99.2046 145.961 97.7508V97.7508Z" fill="#064447"/>
<path d="M138.166 105.787C135.876 105.787 133.586 105.676 131.354 105.568C112.352 104.648 90.2535 103.458 68.4689 100.929C67.7495 100.844 66.8511 100.74 66.1351 100.253C64.5038 99.1404 64.5173 96.7331 65.0239 95.0089C65.1725 94.5051 65.3549 94.0081 65.5778 93.4976C61.4337 92.9194 56.9653 92.2838 51.9363 91.5535C48.5183 91.0599 44.9855 90.546 41.5675 89.6839C38.3116 88.8623 36.4709 87.4288 36.0994 85.4171C35.7312 83.4291 37.0045 81.5426 38.1326 80.3085C38.4231 79.9941 38.7237 79.6865 39.0276 79.3754C39.9733 78.4118 40.9528 77.4178 41.4898 76.177C42.4287 74.0132 41.8917 71.5587 41.3716 69.1853C41.196 68.3772 41.0102 67.5421 40.8886 66.7273C40.2232 62.3389 41.4898 57.5007 44.2762 53.7885C47.1099 50.0119 51.2304 47.8245 55.2192 45.7114L55.996 45.2989C59.7044 43.3245 62.8556 40.312 65.3684 36.3394C65.9561 35.4097 66.5269 34.4427 67.074 33.5062C67.5874 32.6339 68.1177 31.7312 68.6648 30.8555C68.8303 30.5885 69.0397 30.3011 69.2592 29.9934C70.1171 28.7999 71.1878 27.3157 70.5629 26.0986C70.3975 25.774 69.7659 25.3514 69.2086 24.9795C68.7864 24.6955 68.3879 24.4318 68.1413 24.1816C67.4489 23.4817 66.8309 22.7109 66.3006 21.8859C65.2097 20.1921 64.4835 18.2345 64.1931 16.2262C63.6527 12.4734 64.6051 8.73069 66.8748 5.6946C69.1444 2.65852 72.4611 0.687434 76.2101 0.146484C82.9143 -0.820465 89.3484 3.08114 91.5978 9.44407C97.7954 8.11536 103.186 8.77126 105.233 9.11611V9.14316C106.026 9.21078 109.562 9.94783 113.335 12.1725C118.932 15.4723 125.561 22.3052 125.416 36.1332C128.905 39.8218 132.489 44.288 131.242 50.6138C131.195 50.8504 131.141 51.0905 131.09 51.3271C130.935 52.0135 130.79 52.6626 130.793 53.332C130.793 54.3024 131.107 55.3403 131.773 56.598C133.36 59.58 135.91 61.8283 138.379 64.0057C140.99 66.3047 143.688 68.6815 145.269 71.9407C147.184 75.8863 147.485 80.6027 146.08 84.5516C145.819 85.2853 145.499 86.0257 145.188 86.7425C144.279 88.8454 143.34 91.0227 143.82 93.1899C144.094 94.4341 144.82 95.5295 145.522 96.5911C145.749 96.9326 145.971 97.2707 146.184 97.6156C147.012 98.9646 147.853 100.946 147.15 102.728C146.441 104.53 144.475 105.53 141.304 105.703C140.264 105.76 139.217 105.784 138.173 105.784L138.166 105.787ZM78.2433 0.511625C77.5948 0.511625 76.9396 0.558958 76.281 0.653625C72.6637 1.17429 69.4653 3.07776 67.2767 6.00565C65.0881 8.93354 64.1694 12.541 64.6896 16.162C64.9699 18.0993 65.6724 19.9858 66.7228 21.6188C67.2328 22.4133 67.8306 23.1572 68.4959 23.83C68.7053 24.0396 69.0836 24.2931 69.4855 24.5636C70.1239 24.9896 70.7825 25.4291 71.0088 25.872C71.7755 27.3664 70.6069 28.9927 69.6679 30.2977C69.4518 30.5986 69.2491 30.8792 69.0904 31.1328C68.5466 32.0017 68.0197 32.901 67.5097 33.7699C66.9592 34.7098 66.3884 35.6801 65.794 36.6167C63.2372 40.6603 60.0185 43.7335 56.2324 45.752L55.4556 46.1644C51.5175 48.2539 47.4443 50.4109 44.6815 54.0961C41.9761 57.7036 40.7468 62.3997 41.3885 66.6563C41.5101 67.4542 41.6891 68.2825 41.8647 69.0804C42.4017 71.5316 42.959 74.0707 41.9525 76.3833C41.3783 77.7086 40.3651 78.7398 39.389 79.7338C39.0918 80.0381 38.7912 80.3424 38.5075 80.6534C37.4537 81.7995 36.2682 83.5441 36.5992 85.3259C36.9302 87.1245 38.646 88.4262 41.6924 89.1936C45.0868 90.049 48.6061 90.5595 52.0106 91.0532C57.1747 91.8037 61.7478 92.4529 65.9831 93.0412C66.0642 93.0513 66.1317 93.102 66.1689 93.1696C66.206 93.2406 66.2094 93.3252 66.1756 93.3962C65.8987 93.9946 65.6791 94.5693 65.5103 95.1509C65.0138 96.8346 65.1016 98.9375 66.4188 99.8335C67.0301 100.249 67.8238 100.344 68.5263 100.425C90.2974 102.954 112.386 104.144 131.377 105.064C134.62 105.219 137.974 105.382 141.27 105.202C144.225 105.04 146.042 104.148 146.674 102.548C147.299 100.963 146.515 99.137 145.749 97.886C145.539 97.5479 145.32 97.2099 145.097 96.8751C144.367 95.7763 143.617 94.637 143.32 93.3015C142.807 90.972 143.776 88.7203 144.718 86.543C145.026 85.833 145.34 85.0993 145.597 84.3826C146.958 80.5554 146.664 75.9877 144.81 72.1639C143.273 68.9993 140.615 66.6563 138.041 64.3877C135.538 62.1833 132.951 59.9046 131.323 56.8381C130.614 55.506 130.283 54.3936 130.283 53.3354C130.283 52.6119 130.442 51.9053 130.594 51.2189C130.648 50.9857 130.699 50.7524 130.746 50.5191C131.833 44.9845 129.348 41.0187 124.977 36.4104C124.933 36.3631 124.906 36.2989 124.906 36.2312C125.065 23.9246 119.705 17.3487 115.179 14.0016C110.245 10.3502 105.206 9.62664 105.158 9.61988C103.108 9.27164 97.6941 8.61574 91.4897 9.9884C91.3613 10.0154 91.2364 9.94444 91.1958 9.82273C89.3045 4.19347 84.0424 0.508245 78.25 0.508245L78.2433 0.511625Z" fill="#10081E"/>
<path d="M91.4318 9.74487C91.4318 9.74487 76.9898 11.5334 70.8867 27.6537Z" fill="#064447"/>
<path d="M70.8837 27.9108C70.8533 27.9108 70.8229 27.904 70.7925 27.8939C70.6608 27.8432 70.5966 27.6978 70.6439 27.5659C76.7335 11.4862 91.2498 9.51172 91.395 9.49482C91.5369 9.47791 91.6618 9.57596 91.6787 9.71458C91.6956 9.8532 91.5977 9.98167 91.4592 9.99858C91.3173 10.0155 77.0949 11.9629 71.1168 27.7451C71.0796 27.8465 70.9817 27.9074 70.8803 27.9074L70.8837 27.9108Z" fill="#10081E"/>
<path d="M106.055 53.6197L78.4878 54.4773L79.5163 87.608L107.083 86.7504L106.055 53.6197Z" fill="#FAB7C9"/>
<path d="M79.5091 87.8683C79.374 87.8683 79.2592 87.7601 79.2558 87.6215L78.2291 54.4917C78.2257 54.3531 78.3338 54.2347 78.4756 54.2314L106.042 53.376C106.107 53.376 106.174 53.3996 106.225 53.4436C106.272 53.4909 106.303 53.5518 106.306 53.6194L107.333 86.7492C107.333 86.8168 107.309 86.8811 107.265 86.9318C107.218 86.9791 107.154 87.0096 107.089 87.0129L79.5227 87.8683H79.5159H79.5091ZM78.7458 54.7317L79.7557 87.3544L106.816 86.5159L105.806 53.8933L78.7458 54.7317V54.7317Z" fill="#10081E"/>
<path d="M81.1609 33.0497C77.5268 31.9171 73.663 33.949 72.5315 37.5869C71.4001 41.2248 73.4299 45.0926 77.0641 46.2252L77.1958 46.2658L81.2927 33.0869L81.1609 33.0463V33.0497Z" fill="#FAB7C9"/>
<path d="M77.196 46.5196C77.169 46.5196 77.1454 46.5162 77.1217 46.5095L76.99 46.4689C75.1662 45.9009 73.6734 44.6567 72.7851 42.9662C71.8968 41.2758 71.7212 39.3385 72.2886 37.5128C72.856 35.6871 74.0989 34.1927 75.7876 33.3035C77.4764 32.4143 79.4117 32.2385 81.2355 32.8065L81.3672 32.8471C81.5023 32.8877 81.5766 33.0297 81.5327 33.1649L77.4392 46.3438C77.419 46.408 77.3751 46.4621 77.3143 46.4926C77.2771 46.5128 77.2366 46.523 77.196 46.523V46.5196ZM79.1144 32.9891C76.2841 32.9891 73.6531 34.8182 72.7716 37.6615C72.2447 39.3554 72.4102 41.1574 73.2343 42.7262C74.0415 44.2645 75.3857 45.4039 77.0305 45.9448L80.9754 33.2528C80.3573 33.0702 79.7325 32.9857 79.1178 32.9857L79.1144 32.9891Z" fill="#10081E"/>
<path d="M117.868 44.4807L117.493 44.3657L113.396 57.5446L113.771 57.6596C117.405 58.7922 121.269 56.7602 122.4 53.1224C123.532 49.4845 121.502 45.6167 117.868 44.4841V44.4807Z" fill="#FAB7C9"/>
<path d="M115.814 58.2243C115.112 58.2243 114.399 58.1195 113.697 57.8997L113.322 57.7848C113.257 57.7645 113.203 57.7205 113.173 57.6597C113.143 57.5988 113.136 57.5312 113.156 57.467L117.253 44.2881C117.294 44.1562 117.435 44.0818 117.57 44.1224L117.945 44.2374C121.708 45.4105 123.815 49.4271 122.647 53.1935C121.694 56.2566 118.864 58.2243 115.818 58.2243H115.814ZM113.713 57.3757L113.845 57.4163C115.537 57.9437 117.337 57.778 118.905 56.9531C120.475 56.1281 121.63 54.7386 122.157 53.0447C123.245 49.5454 121.286 45.8129 117.79 44.7242L117.658 44.6836L113.713 57.3757Z" fill="#10081E"/>
<path d="M117.53 44.251C117.732 43.6018 117.891 42.9493 118.016 42.2968C107.701 37.5094 105.158 27.4173 103.523 23.6746C102.216 24.6855 94.1102 34.1791 82.8768 32.8504C82.3601 32.7896 81.8602 32.8809 81.357 32.8809C81.3468 32.9113 81.3367 32.9417 81.3266 32.9721L81.2928 33.0837L77.1959 46.2626L76.9865 46.9354C73.9705 56.6387 79.6311 67.0283 89.625 70.1422C99.6222 73.256 110.17 67.9141 113.186 58.2108L113.396 57.538L117.492 44.3591L117.526 44.2476L117.53 44.251Z" fill="#FAB7C9"/>
<path d="M95.4072 71.2815C93.4719 71.2815 91.5028 70.9941 89.554 70.3855C79.4385 67.2345 73.6935 56.6826 76.7467 46.861L81.1171 32.8064C81.1509 32.7016 81.2489 32.6272 81.3569 32.6272C81.5359 32.6272 81.7149 32.6137 81.8973 32.6035C82.2216 32.5799 82.5559 32.5562 82.9072 32.6002C92.6275 33.7463 100.102 26.5787 102.557 24.2222C102.929 23.8672 103.196 23.6102 103.368 23.475C103.429 23.4277 103.51 23.4108 103.584 23.431C103.658 23.4513 103.722 23.502 103.753 23.5764C103.976 24.0836 104.209 24.6955 104.479 25.4055C106.158 29.794 109.278 37.9657 118.117 42.0702C118.222 42.1175 118.283 42.2324 118.259 42.3474C118.127 43.027 117.962 43.693 117.766 44.3286L113.426 58.2919C110.96 66.2202 103.506 71.2849 95.4004 71.2849L95.4072 71.2815ZM81.5461 33.1343L81.5359 33.1648L77.2331 47.0131C74.2643 56.5676 79.8607 66.8355 89.706 69.902C99.5547 72.9686 109.981 67.6909 112.95 58.1364L117.29 44.1731C117.462 43.6186 117.611 43.0371 117.732 42.4421C108.846 38.226 105.705 30.0104 104.013 25.5847C103.8 25.0235 103.608 24.5265 103.429 24.0971C103.287 24.229 103.111 24.398 102.908 24.5907C100.595 26.812 93.9008 33.2324 85.0113 33.2324C84.3021 33.2324 83.5827 33.1918 82.8498 33.1039C82.5458 33.0667 82.2486 33.087 81.9345 33.1107C81.8061 33.1208 81.6744 33.1276 81.5461 33.1343V33.1343Z" fill="#10081E"/>
<path d="M75.6561 40.4305C75.5581 40.4305 75.4635 40.373 75.423 40.275C75.369 40.1465 75.4298 39.9977 75.5615 39.9436L77.1624 39.281L76.0343 37.8238C75.9499 37.7122 75.9735 37.5533 76.085 37.4688C76.1964 37.3843 76.3552 37.4079 76.4396 37.5195L77.5609 39.0037C77.6521 39.1254 77.6825 39.281 77.642 39.4263C77.6015 39.5751 77.4968 39.6901 77.3583 39.7509L75.7574 40.4136C75.727 40.4271 75.6932 40.4339 75.6594 40.4339L75.6561 40.4305Z" fill="#10081E"/>
<path d="M118.566 53.7954C118.482 53.7954 118.401 53.7548 118.353 53.6804L117.408 52.2266C117.323 52.0981 117.306 51.9426 117.357 51.8006C117.408 51.6552 117.519 51.547 117.664 51.4997L119.431 50.9114C119.563 50.8675 119.708 50.9385 119.752 51.0737C119.796 51.2056 119.725 51.3509 119.59 51.3949L117.823 51.9832L118.776 53.4099C118.853 53.5283 118.82 53.6838 118.701 53.7616C118.657 53.7886 118.61 53.8021 118.563 53.8021L118.566 53.7954Z" fill="#10081E"/>
<path d="M105.451 39.2471C105.766 39.663 106.33 39.9165 106.863 40.1904C107.407 40.4575 107.944 40.7381 108.403 41.0018C108.863 41.2621 109.383 41.5833 109.889 41.9113C110.399 42.2291 110.909 42.5841 111.419 42.6382C111.909 42.6957 112.341 42.3069 112.206 41.4549C112.092 40.6333 111.298 39.3553 109.778 38.4898C108.255 37.6276 106.772 37.6107 106.026 37.9421C105.242 38.2768 105.147 38.8549 105.451 39.2471V39.2471Z" fill="#064447"/>
<path d="M111.511 42.8984C111.47 42.8984 111.426 42.8984 111.386 42.8917C110.883 42.8376 110.4 42.5367 109.934 42.2425L109.751 42.1276C109.228 41.7861 108.718 41.475 108.275 41.2215C107.836 40.9713 107.309 40.6941 106.749 40.4202L106.553 40.3188C106.063 40.0686 105.56 39.8116 105.249 39.4025C105.057 39.1523 104.992 38.8548 105.067 38.5674C105.131 38.3139 105.334 37.9623 105.925 37.7087C106.752 37.3402 108.306 37.3672 109.9 38.2665C111.491 39.176 112.328 40.5047 112.453 41.421C112.555 42.0667 112.359 42.4319 112.176 42.6212C112.001 42.8038 111.768 42.9018 111.508 42.9018L111.511 42.8984ZM107.137 37.9927C106.728 37.9927 106.381 38.0603 106.127 38.1719C105.81 38.3071 105.607 38.4931 105.556 38.6925C105.523 38.8244 105.556 38.9664 105.651 39.0915C105.891 39.4127 106.323 39.6324 106.782 39.8657L106.978 39.9672C107.542 40.2444 108.079 40.5284 108.525 40.782C108.978 41.0389 109.495 41.3567 110.021 41.6982L110.204 41.8098C110.64 42.0836 111.052 42.3439 111.443 42.3845C111.551 42.398 111.7 42.3845 111.815 42.2662C111.96 42.114 112.011 41.8402 111.953 41.492C111.845 40.7211 111.082 39.5242 109.65 38.7061C108.741 38.1922 107.846 37.9927 107.137 37.9927V37.9927Z" fill="#10081E"/>
<path d="M95.4986 35.9912C95.0393 36.2313 94.4178 36.2177 93.82 36.238C93.2155 36.2448 92.6075 36.2685 92.084 36.309C91.5571 36.3462 90.9526 36.4138 90.3514 36.4916C89.7536 36.5592 89.1422 36.664 88.6559 36.4916C88.1898 36.3327 87.9635 35.7985 88.4532 35.0817C88.9092 34.3887 90.1724 33.5772 91.9185 33.4454C93.6613 33.3237 95.0089 33.9424 95.5425 34.5645C96.1066 35.2035 95.9445 35.7647 95.502 35.9912H95.4986Z" fill="#064447"/>
<path d="M89.294 36.8365C89.0407 36.8365 88.7975 36.8094 88.5712 36.7283C88.2808 36.6302 88.068 36.4206 87.9768 36.1434C87.8924 35.8932 87.8721 35.4841 88.2436 34.9398C88.7469 34.1723 90.0742 33.3305 91.898 33.1952C93.7286 33.0667 95.1404 33.7091 95.7315 34.4022C96.1536 34.8823 96.184 35.288 96.1367 35.545C96.0793 35.8357 95.8969 36.0758 95.6132 36.2212C95.1573 36.4578 94.5899 36.4747 94.0427 36.4882L93.8266 36.495C93.195 36.5052 92.6005 36.5288 92.1007 36.566C91.5941 36.6032 90.9996 36.6674 90.3849 36.7486L90.162 36.7756C89.8716 36.8094 89.5777 36.8432 89.294 36.8432V36.8365ZM92.3607 33.6821C92.2223 33.6821 92.0804 33.6855 91.9352 33.6956C90.2937 33.8207 89.088 34.5713 88.6624 35.217C88.4632 35.5112 88.3889 35.7816 88.453 35.9811C88.5071 36.14 88.6354 36.2144 88.7334 36.2482C89.1049 36.3801 89.5879 36.3226 90.0979 36.2617L90.3174 36.2347C90.9355 36.1535 91.54 36.0893 92.0568 36.0521C92.5668 36.0149 93.1747 35.9912 93.8097 35.9811L94.0225 35.9743C94.5358 35.9608 95.0222 35.9473 95.3734 35.7613C95.5119 35.6903 95.6031 35.5754 95.6301 35.4402C95.6707 35.2373 95.566 34.9837 95.3397 34.7268C94.8871 34.196 93.786 33.6787 92.3506 33.6787L92.3607 33.6821Z" fill="#10081E"/>
<path d="M96.2281 51.9257C95.8802 51.9257 95.5256 51.8784 95.1743 51.7736L93.9618 51.4186C93.8267 51.378 93.749 51.2394 93.7896 51.1041C93.8301 50.9689 93.9686 50.8945 94.1037 50.9317L95.3162 51.2867C97.0252 51.7871 98.8152 50.8168 99.3049 49.1263C99.4299 48.6969 99.1766 48.2439 98.7409 48.1154C98.1262 47.9362 97.6162 47.5305 97.3055 46.9693C96.9948 46.408 96.9205 45.7656 97.0995 45.1537L97.9607 42.192C98.0012 42.0567 98.1397 41.9824 98.2748 42.0196C98.4099 42.0601 98.4876 42.1987 98.4471 42.334L97.5858 45.2957C97.4473 45.7758 97.5048 46.2829 97.7479 46.7258C97.9945 47.1687 98.3964 47.4899 98.8828 47.6319C99.5853 47.8382 99.9939 48.5718 99.7913 49.2717C99.3218 50.881 97.8357 51.9291 96.2247 51.9291L96.2281 51.9257Z" fill="#10081E"/>
<path d="M93.1679 56.4492C92.614 56.4492 91.9824 56.3512 91.3508 56.0435C90.1045 55.4349 89.2129 54.1738 88.7029 52.3008C88.6657 52.1656 88.7468 52.0269 88.8819 51.9897C89.017 51.9526 89.1554 52.0337 89.1926 52.1689C89.6621 53.8966 90.4625 55.0495 91.5737 55.5904C93.0868 56.3309 94.6708 55.6783 94.6877 55.6716C94.8161 55.6175 94.9647 55.6783 95.0187 55.8068C95.0727 55.9353 95.012 56.0841 94.8836 56.1382C94.8363 56.1584 94.1237 56.4526 93.1679 56.4526V56.4492Z" fill="#10081E"/>
<path d="M87.2103 42.6178C87.1225 43.6017 87.8487 44.4706 88.8315 44.5585C89.8143 44.6464 90.6823 43.9195 90.7702 42.9357C90.858 41.9518 90.1318 41.0829 89.149 40.995C88.1661 40.9071 87.2981 41.634 87.2103 42.6178Z" fill="#10081E"/>
<path d="M88.0881 46.7865C89.4032 46.7865 90.4692 45.9767 90.4692 44.9777C90.4692 43.9788 89.4032 43.1689 88.0881 43.1689C86.7731 43.1689 85.707 43.9788 85.707 44.9777C85.707 45.9767 86.7731 46.7865 88.0881 46.7865Z" fill="#FAB7C9"/>
<path d="M105.01 48.7543C104.922 49.7382 105.648 50.6071 106.631 50.695C107.614 50.7829 108.482 50.056 108.569 49.0721C108.657 48.0883 107.931 47.2194 106.948 47.1315C105.965 47.0436 105.097 47.7705 105.01 48.7543Z" fill="#10081E"/>
<path d="M105.577 53.1564C106.892 53.1564 107.958 52.3466 107.958 51.3476C107.958 50.3486 106.892 49.5388 105.577 49.5388C104.262 49.5388 103.196 50.3486 103.196 51.3476C103.196 52.3466 104.262 53.1564 105.577 53.1564Z" fill="#FAB7C9"/>
<path d="M104.246 49.5456C104.246 49.5456 106.573 48.3589 108.15 50.8743Z" fill="#FAB7C9"/>
<path d="M108.151 51.1243C108.066 51.1243 107.985 51.0837 107.934 51.0059C106.502 48.7272 104.446 49.7245 104.358 49.7685C104.233 49.8327 104.081 49.782 104.017 49.6569C103.952 49.5318 104.003 49.3797 104.128 49.3155C104.152 49.3019 106.681 48.0544 108.363 50.7354C108.438 50.8538 108.404 51.0093 108.282 51.0837C108.242 51.1107 108.195 51.1209 108.147 51.1209L108.151 51.1243Z" fill="#10081E"/>
<path d="M86.5615 43.4496C86.5615 43.4496 88.8886 42.2629 90.4659 44.7783Z" fill="#FAB7C9"/>
<path d="M90.469 45.032C90.3845 45.032 90.3035 44.9914 90.2528 44.9136C88.8208 42.6315 86.7639 43.6323 86.6761 43.6762C86.5511 43.7405 86.3992 43.6897 86.335 43.5646C86.2708 43.4395 86.3215 43.2874 86.4464 43.2232C86.4701 43.2096 88.9998 41.9621 90.6818 44.6432C90.7561 44.7615 90.7223 44.917 90.6007 44.9914C90.5602 45.0184 90.5129 45.0286 90.4656 45.0286L90.469 45.032Z" fill="#10081E"/>
<path d="M190.02 126.347C190.02 105.929 173.079 88.1018 151.304 81.2554C141.094 78.0435 130.199 76.8872 119.381 76.0995C115.203 75.7952 113.946 76.8771 109.758 76.7046C109.758 76.7046 99.6023 85.5052 95.2826 86.5364C90.9628 85.5052 78.7668 76.7046 78.7668 76.7046C74.5787 76.8771 75.3589 75.7952 71.181 76.0995C60.363 76.8872 49.4673 78.0469 39.2573 81.2554C17.4828 88.1018 0.541504 105.929 0.541504 126.347C0.541504 126.347 5.52663 126.36 13.8892 126.384V159.852H164.024V126.418C179.783 126.377 190.02 126.347 190.02 126.347V126.347Z" fill="#16A9B1"/>
<path d="M164.024 160.106H13.8925C13.754 160.106 13.6392 159.991 13.6392 159.852V126.638C5.42862 126.614 0.544813 126.601 0.544813 126.601C0.406337 126.601 0.291504 126.486 0.291504 126.347C0.291504 116.481 4.18234 106.869 11.5486 98.5421C18.5332 90.6443 28.3514 84.42 39.1863 81.012C49.5044 77.7663 60.6568 76.61 71.1674 75.8425C73.3493 75.6836 74.2004 75.8932 75.0988 76.1164C75.9128 76.3192 76.7538 76.5255 78.76 76.4443C78.8241 76.4409 78.8714 76.4578 78.9187 76.4917C79.0403 76.5796 91.01 85.1942 95.2859 86.266C99.5313 85.1942 109.495 76.5931 109.596 76.5052C109.643 76.4646 109.708 76.4376 109.772 76.4443C111.764 76.5255 113.099 76.3192 114.389 76.1198C115.777 75.9034 117.209 75.6836 119.404 75.8425C129.915 76.61 141.067 77.7663 151.385 81.012C162.22 84.42 172.035 90.6443 179.023 98.5421C186.386 106.866 190.28 116.481 190.28 126.347C190.28 126.486 190.169 126.601 190.027 126.601C190.027 126.601 179.898 126.631 164.284 126.672V159.852C164.284 159.991 164.169 160.106 164.031 160.106H164.024ZM14.1458 159.599H163.771V126.418C163.771 126.279 163.885 126.164 164.024 126.164C178.341 126.127 188.102 126.1 189.767 126.093C189.628 106.913 173.822 88.5988 151.23 81.4954C140.959 78.2666 129.844 77.1138 119.364 76.3497C117.226 76.1941 115.885 76.4038 114.463 76.6235C113.17 76.823 111.835 77.0326 109.849 76.9582C108.836 77.8305 99.5246 85.7791 95.3433 86.7799C95.3061 86.79 95.2656 86.79 95.2251 86.7799C91.0303 85.7791 79.7935 77.7528 78.6924 76.9582C76.6761 77.0326 75.8148 76.8196 74.9772 76.6134C74.116 76.4004 73.3054 76.1975 71.2046 76.353C60.7243 77.1171 49.6091 78.27 39.3383 81.4988C16.7465 88.6022 0.939976 106.913 0.8015 126.097C1.91268 126.097 6.62761 126.114 13.8959 126.134C14.0344 126.134 14.1492 126.249 14.1492 126.388V159.602L14.1458 159.599Z" fill="#10081E"/>
<g style="mix-blend-mode:soft-light">
<path d="M164.192 160.021H13.7232V126.553C5.46194 126.529 0.544361 126.516 0.544361 126.516H0.375488V126.347C0.375488 116.505 4.25956 106.91 11.6123 98.5994C18.5901 90.7116 28.3881 84.4975 39.2095 81.0929C49.5209 77.8505 60.6631 76.6943 71.1704 75.9302C73.3387 75.7746 74.1831 75.9809 75.0747 76.204C75.8954 76.4069 76.7432 76.6165 78.7595 76.5354H78.8169L78.8642 76.5658C78.9858 76.6537 91.0062 85.3055 95.2787 86.3604C99.5444 85.3055 110.582 76.6571 110.693 76.5692L110.741 76.532H110.801C112.811 76.6199 113.899 76.4069 114.952 76.204C116.114 75.9809 117.209 75.7713 119.384 75.9302C129.891 76.6976 141.033 77.8539 151.344 81.0929C162.166 84.4941 171.967 90.7116 178.942 98.5994C186.291 106.91 190.175 116.505 190.175 126.347V126.516H190.006C190.006 126.516 179.84 126.546 164.179 126.587V160.021H164.192ZM14.0609 159.683H163.855V126.249H164.023C178.607 126.211 188.463 126.181 189.851 126.178C189.76 106.93 173.913 88.5377 151.253 81.414C140.976 78.1819 129.854 77.029 119.367 76.2649C117.236 76.1094 116.161 76.3156 115.023 76.5354C113.963 76.7382 112.865 76.9512 110.856 76.8735C109.944 77.5868 99.5275 85.6943 95.3192 86.6985L95.2787 86.7086L95.2381 86.6985C91.0265 85.6943 79.6647 77.5598 78.7122 76.8735C76.6891 76.9512 75.8279 76.7382 74.9903 76.532C74.1223 76.3156 73.3083 76.1127 71.1906 76.2683C60.7036 77.0324 49.585 78.1853 39.3041 81.4174C16.6447 88.5411 0.801048 106.93 0.70648 126.181C1.64204 126.181 6.41438 126.198 13.8853 126.218H14.0542V159.686L14.0609 159.683Z" fill="#10081E"/>
</g>
<path d="M127.537 74.6692L108.073 74.818C107.769 74.818 107.475 74.9262 107.255 75.1121L94.0326 86.2794L80.8098 75.1121C80.5903 74.9262 80.2964 74.8214 79.9925 74.818L60.5282 74.6692C59.4238 74.6625 58.8732 75.8695 59.6737 76.5456L74.9499 89.3966C80.2019 93.8155 88.2639 94.1637 94.0326 90.2723C99.8013 94.1637 107.863 93.8121 113.115 89.3966L128.391 76.5456C129.195 75.8695 128.645 74.6625 127.537 74.6692V74.6692Z" fill="#FFFBFA"/>
<path d="M103.02 93.2305C99.8822 93.2305 96.731 92.3548 94.0358 90.5798C88.1556 94.4543 80.0869 94.0486 74.7911 89.5926L59.5148 76.7416C59.0859 76.3798 58.9373 75.8423 59.123 75.3385C59.3291 74.7739 59.8694 74.4088 60.5348 74.4189L79.9991 74.5677C80.3639 74.5677 80.7117 74.6961 80.9786 74.9227L94.0358 85.9513L107.093 74.9227C107.36 74.6961 107.708 74.5711 108.073 74.5677L127.537 74.4189H127.55C128.195 74.4189 128.743 74.7807 128.949 75.3385C129.134 75.8423 128.982 76.3798 128.557 76.7416L113.281 89.5926C110.41 92.0066 106.728 93.2305 103.02 93.2305V93.2305ZM94.0358 90.0219C94.0865 90.0219 94.1338 90.0355 94.1777 90.0659C99.8889 93.9168 107.785 93.555 112.956 89.2038L128.233 76.3528C128.496 76.1297 128.587 75.8152 128.476 75.5143C128.374 75.2405 128.074 74.926 127.554 74.926H127.544L108.079 75.0748C107.833 75.0748 107.6 75.1593 107.421 75.3081L94.1979 86.4753C94.1034 86.5565 93.9649 86.5565 93.8703 86.4753L80.6476 75.3081C80.4719 75.1593 80.2389 75.0748 79.9923 75.0748L60.5281 74.926H60.5179C59.9978 74.926 59.6938 75.2439 59.5959 75.5143C59.4844 75.8186 59.5756 76.133 59.8391 76.3528L75.1153 89.2038C80.2862 93.555 88.1827 93.9168 93.894 90.0659C93.9379 90.0388 93.9851 90.0219 94.0358 90.0219V90.0219Z" fill="#10081E"/>
<path d="M135.882 109.804C135.896 109.561 135.906 109.317 135.909 109.07L135.919 108.262C136.014 100.905 130.681 94.6878 123.663 93.4368C123.558 86.1272 117.806 80.1869 110.642 80.099C108.538 80.072 106.546 80.5554 104.769 81.4311C102.722 76.7891 98.2033 73.5299 92.9142 73.4622C87.3245 73.3912 82.5049 76.9007 80.5189 81.918C78.4621 80.5014 75.9999 79.6561 73.3385 79.6223C66.0938 79.531 60.1394 85.451 59.9739 92.8756C53.5128 94.4173 48.6324 100.219 48.5446 107.15L48.5344 107.958C48.5344 108.157 48.5344 108.354 48.5412 108.553C44.1066 109.865 40.8203 113.959 40.7595 118.818L40.7494 119.724C40.6751 125.684 45.4846 130.627 51.4424 130.702L58.4608 130.789C60.8284 134.738 65.675 137.484 71.3052 137.555C74.3551 137.592 77.1989 136.841 79.553 135.526C82.1807 138.383 86.2775 140.249 90.908 140.307C95.9438 140.371 100.405 138.285 103.06 135.06C105.573 136.899 108.846 138.031 112.433 138.075C118.063 138.146 122.974 135.526 125.443 131.638L132.018 131.723C137.973 131.797 142.911 126.983 142.985 121.019L142.995 120.112C143.056 115.41 140.074 111.346 135.889 109.801L135.882 109.804Z" fill="#9FC530"/>
<path d="M91.1246 140.56C91.0503 140.56 90.976 140.56 90.8983 140.56C86.4299 140.503 82.2858 138.785 79.496 135.844C77.0507 137.169 74.2272 137.849 71.2955 137.808C65.8004 137.737 60.8423 135.151 58.3126 131.043L51.4361 130.955C48.4876 130.918 45.7214 129.724 43.651 127.598C41.5773 125.471 40.4594 122.672 40.4965 119.72L40.5066 118.814C40.5674 114.064 43.7557 109.797 48.2849 108.367C48.2849 108.232 48.2815 108.093 48.2849 107.958L48.2951 107.15C48.3829 100.276 53.0742 94.3529 59.7311 92.6759C59.9979 85.2311 66.0706 79.2874 73.3457 79.3719C75.8619 79.4024 78.297 80.1496 80.4079 81.5357C82.5526 76.4508 87.352 73.2085 92.7525 73.2085C92.8099 73.2085 92.8674 73.2085 92.9248 73.2085C98.0383 73.2727 102.709 76.3562 104.901 81.0895C106.715 80.2375 108.637 79.825 110.653 79.8453C117.918 79.9366 123.707 85.7957 123.92 93.227C131.016 94.5963 136.271 101.023 136.18 108.265L136.17 109.073C136.17 109.259 136.16 109.445 136.153 109.631C140.466 111.305 143.31 115.497 143.249 120.119L143.239 121.025C143.202 123.977 142.009 126.746 139.885 128.818C137.761 130.894 134.978 132.013 132.015 131.976L125.581 131.895C122.95 135.938 117.931 138.407 112.43 138.329C109.018 138.285 105.715 137.247 103.101 135.401C100.328 138.643 95.8868 140.56 91.128 140.56H91.1246ZM79.55 135.269C79.6176 135.269 79.6885 135.296 79.7358 135.35C82.431 138.281 86.5042 139.992 90.9084 140.05C95.6808 140.104 100.156 138.183 102.861 134.897C102.946 134.792 103.098 134.775 103.206 134.853C105.766 136.723 109.042 137.778 112.433 137.822C112.507 137.822 112.582 137.822 112.656 137.822C117.942 137.822 122.744 135.414 125.227 131.503C125.274 131.428 125.355 131.384 125.44 131.384L132.015 131.469C134.812 131.506 137.494 130.434 139.524 128.453C141.553 126.472 142.688 123.831 142.725 121.015L142.736 120.109C142.793 115.639 140.003 111.592 135.795 110.037C135.69 109.996 135.623 109.895 135.629 109.783C135.643 109.543 135.653 109.303 135.656 109.063L135.667 108.255C135.758 101.189 130.577 94.9243 123.619 93.6835C123.501 93.6632 123.413 93.5584 123.41 93.4367C123.305 86.1879 117.695 80.4369 110.64 80.349C108.623 80.3186 106.688 80.7615 104.881 81.6575C104.82 81.6879 104.746 81.6913 104.682 81.6676C104.618 81.6439 104.563 81.5932 104.536 81.5324C102.473 76.8464 97.9099 73.7799 92.9079 73.7156C87.5614 73.6514 82.7755 76.9039 80.749 82.0125C80.722 82.0835 80.6612 82.1409 80.5869 82.1612C80.5126 82.1815 80.4316 82.1714 80.3708 82.1274C78.2835 80.6871 75.8484 79.9095 73.3288 79.8757C66.2598 79.7743 60.383 85.6199 60.2209 92.8788C60.2209 92.9938 60.1398 93.0918 60.025 93.1188C53.493 94.6775 48.8726 100.445 48.7882 107.15L48.778 107.958C48.778 108.154 48.778 108.347 48.7848 108.543C48.7848 108.658 48.7139 108.759 48.6024 108.793C44.1847 110.098 41.0605 114.219 41.0031 118.817L40.993 119.723C40.9558 122.54 42.0265 125.207 44.0057 127.239C45.9849 129.271 48.6227 130.407 51.4361 130.444L58.4544 130.532C58.5423 130.532 58.6233 130.58 58.6672 130.654C61.0821 134.684 65.922 137.227 71.2955 137.294C74.2069 137.335 77.0102 136.642 79.4183 135.296C79.4555 135.276 79.4994 135.266 79.5433 135.266L79.55 135.269Z" fill="#10081E"/>
<path d="M86.2881 106.609C86.2442 110.118 83.6909 112.931 80.587 112.894C77.4831 112.853 75.004 109.976 75.0479 106.467C75.0918 102.957 77.6452 100.144 80.7491 100.182C83.853 100.222 86.332 103.099 86.2881 106.609Z" fill="white"/>
<path d="M80.6515 113.148C80.6278 113.148 80.6075 113.148 80.5839 113.148C79.01 113.127 77.5408 112.417 76.4465 111.146C75.359 109.885 74.7747 108.222 74.7949 106.464C74.8186 104.702 75.4468 103.056 76.5647 101.822C77.6759 100.598 79.135 99.9282 80.6852 99.9282C80.7089 99.9282 80.7291 99.9282 80.7528 99.9282C83.9918 99.9688 86.589 102.968 86.5417 106.612C86.5181 108.37 85.8899 110.02 84.772 111.251C83.6608 112.475 82.2017 113.144 80.6515 113.144V113.148ZM80.6819 100.435C79.2768 100.435 77.9495 101.047 76.9363 102.163C75.9027 103.306 75.3185 104.834 75.2982 106.47C75.2779 108.107 75.8183 109.648 76.8248 110.815C77.8245 111.971 79.1586 112.62 80.5873 112.637C82.0126 112.661 83.3669 112.042 84.3937 110.91C85.4272 109.767 86.0115 108.239 86.0317 106.602C86.0757 103.238 83.7013 100.469 80.7426 100.432C80.7224 100.432 80.7021 100.432 80.6819 100.432V100.435Z" fill="#10081E"/>
<path d="M89.4429 101.642C89.399 105.152 86.8456 107.964 83.7418 107.927C80.6379 107.887 78.1588 105.01 78.2027 101.5C78.2466 97.9907 80.8 95.1778 83.9039 95.215C87.0077 95.2555 89.4868 98.1327 89.4429 101.642Z" fill="#10081E"/>
<path d="M83.8059 108.181C83.7822 108.181 83.762 108.181 83.7383 108.181C80.4993 108.14 77.9021 105.141 77.9494 101.497C77.973 99.7353 78.6012 98.0888 79.7192 96.8548C80.8303 95.6309 82.2894 94.9614 83.8397 94.9614C83.8633 94.9614 83.8836 94.9614 83.9072 94.9614C85.4811 94.9817 86.9503 95.6917 88.0446 96.9629C89.1321 98.224 89.7164 99.8874 89.6962 101.646C89.6725 103.404 89.0477 105.054 87.9264 106.288C86.8152 107.511 85.3561 108.181 83.8059 108.181V108.181ZM83.8363 95.4686C82.4312 95.4686 81.1039 96.0805 80.0907 97.1962C79.0572 98.339 78.4729 99.8672 78.4526 101.504C78.4087 104.868 80.7831 107.637 83.7417 107.674C85.1636 107.694 86.5213 107.079 87.5481 105.946C88.5816 104.803 89.1659 103.275 89.1862 101.639C89.2064 100.002 88.666 98.4607 87.6596 97.2943C86.6598 96.1346 85.3257 95.4889 83.8971 95.4686C83.8768 95.4686 83.8565 95.4686 83.8363 95.4686V95.4686Z" fill="#10081E"/>
<path d="M81.8606 101.977C81.8437 103.326 80.8642 104.405 79.672 104.391C78.4797 104.377 77.5273 103.272 77.5442 101.923C77.5611 100.574 78.5405 99.4954 79.7328 99.5089C80.925 99.5224 81.8774 100.628 81.8606 101.977Z" fill="white"/>
<path d="M86.2881 106.609C86.2442 110.118 83.6909 112.931 80.587 112.894C77.4831 112.853 75.004 109.976 75.0479 106.467C75.0918 102.957 77.6452 100.144 80.7491 100.182C83.853 100.222 86.332 103.099 86.2881 106.609Z" stroke="#10081E" stroke-width="1.08495" stroke-linecap="round" stroke-linejoin="round"/>
<path d="M69.7521 113.165C69.7217 115.538 74.0077 117.516 79.3238 117.583C84.6399 117.651 88.9766 115.781 89.007 113.408C89.0374 111.035 84.7514 109.057 79.4353 108.989C74.1192 108.921 69.7825 110.791 69.7521 113.165V113.165Z" fill="#9FC530"/>
<path d="M108.135 106.896C108.18 103.386 105.7 100.509 102.596 100.469C99.4927 100.429 96.9405 103.243 96.8958 106.753C96.8512 110.263 99.3309 113.141 102.435 113.18C105.538 113.22 108.09 110.406 108.135 106.896Z" fill="white"/>
<path d="M102.493 113.425C102.469 113.425 102.449 113.425 102.425 113.425C99.1864 113.384 96.5891 110.385 96.6364 106.741C96.6837 103.123 99.3181 100.205 102.527 100.205C102.55 100.205 102.571 100.205 102.594 100.205C105.833 100.246 108.43 103.245 108.383 106.889C108.36 108.648 107.731 110.297 106.613 111.528C105.502 112.752 104.043 113.421 102.493 113.421V113.425ZM102.523 100.712C99.5917 100.712 97.1835 103.404 97.1396 106.747C97.0957 110.111 99.4701 112.88 102.429 112.918C103.854 112.941 105.208 112.323 106.235 111.19C107.269 110.047 107.853 108.519 107.873 106.883C107.917 103.519 105.543 100.75 102.584 100.712C102.564 100.712 102.544 100.712 102.523 100.712Z" fill="#10081E"/>
<path d="M111.29 101.928C111.335 98.4175 108.855 95.5399 105.751 95.5003C102.648 95.4607 100.095 98.2741 100.051 101.784C100.006 105.294 102.486 108.172 105.589 108.212C108.693 108.251 111.245 105.438 111.29 101.928Z" fill="#10081E"/>
<path d="M103.273 102.383C103.256 103.732 102.277 104.81 101.085 104.797C99.8923 104.783 98.9399 103.678 98.9568 102.329C98.9737 100.98 99.9531 99.9012 101.145 99.9147C102.338 99.9282 103.29 101.034 103.273 102.383Z" fill="white"/>
<path d="M108.135 106.896C108.18 103.386 105.7 100.509 102.596 100.469C99.4927 100.429 96.9405 103.243 96.8958 106.753C96.8512 110.263 99.3309 113.141 102.435 113.18C105.538 113.22 108.09 110.406 108.135 106.896Z" stroke="#10081E" stroke-width="1.08495" stroke-linecap="round" stroke-linejoin="round"/>
<path d="M94.8937 113.482C94.8633 115.856 99.1493 117.833 104.465 117.901C109.782 117.969 114.118 116.099 114.149 113.726C114.179 111.352 109.893 109.374 104.577 109.307C99.2608 109.239 94.9241 111.109 94.8937 113.482Z" fill="#9FC530"/>
<path d="M104.749 96.1449C104.682 96.1449 104.618 96.1178 104.567 96.0671C102.682 94.1265 100.561 95.2016 100.541 95.2117C100.416 95.276 100.264 95.2287 100.2 95.1036C100.136 94.9785 100.183 94.8263 100.308 94.7621C100.332 94.7486 102.787 93.5044 104.932 95.7121C105.03 95.8136 105.026 95.9725 104.928 96.0705C104.878 96.1178 104.817 96.1415 104.753 96.1415L104.749 96.1449Z" fill="#10081E"/>
<path d="M78.6517 95.249C78.5876 95.249 78.5234 95.2253 78.4761 95.178C78.3748 95.0799 78.3714 94.921 78.4693 94.8196C78.4896 94.7993 80.4215 92.8417 83.1573 94.2516C83.2822 94.3158 83.3295 94.468 83.2653 94.5931C83.2012 94.7182 83.0492 94.7655 82.9242 94.7012C80.533 93.4672 78.9017 95.1002 78.8341 95.1712C78.7835 95.2219 78.7193 95.249 78.6517 95.249Z" fill="#10081E"/>
<path d="M91.7226 112.786C91.7226 112.786 91.6989 112.786 91.6888 112.786C91.0099 112.776 90.3749 112.505 89.9021 112.018C89.4293 111.531 89.1726 110.889 89.1793 110.209C89.1793 110.071 89.2942 109.959 89.4326 109.959C89.5711 109.959 89.6859 110.078 89.6826 110.216C89.6758 110.761 89.8818 111.274 90.2601 111.663C90.6384 112.052 91.1484 112.272 91.6922 112.279C92.2427 112.279 92.7493 112.079 93.1377 111.7C93.5261 111.322 93.7456 110.811 93.7524 110.267C93.7524 110.128 93.8672 110.017 94.0057 110.017C94.1442 110.017 94.259 110.135 94.2556 110.274C94.2455 110.953 93.9753 111.589 93.489 112.062C93.0094 112.529 92.3812 112.786 91.7158 112.786H91.7226Z" fill="#10081E"/>
<path d="M88.629 111.038C88.5276 111.038 88.4364 111.024 88.3621 111.004C88.227 110.967 88.1494 110.825 88.1865 110.693C88.2237 110.558 88.3621 110.48 88.4972 110.517C88.5817 110.537 89.0072 110.615 89.1964 110.067C89.2403 109.936 89.3855 109.865 89.5172 109.909C89.649 109.952 89.7199 110.098 89.676 110.23C89.4564 110.872 88.987 111.041 88.6323 111.041L88.629 111.038Z" fill="#10081E"/>
<path d="M94.8198 111.116C94.4617 111.116 93.9754 110.943 93.7694 110.277C93.7288 110.145 93.8031 110 93.9349 109.959C94.0666 109.915 94.2118 109.993 94.2523 110.125C94.428 110.683 94.8569 110.612 94.938 110.595C95.0764 110.561 95.2115 110.646 95.2419 110.781C95.2757 110.916 95.1947 111.051 95.0596 111.085C94.992 111.102 94.9109 111.112 94.8198 111.112V111.116Z" fill="#10081E"/>
<path d="M79.8945 113.874C79.881 115.034 77.1587 115.94 73.8184 115.896C70.4781 115.852 67.7829 114.879 67.7964 113.722C67.8099 112.563 70.5322 111.657 73.8725 111.701C77.2128 111.744 79.908 112.718 79.8945 113.874Z" fill="#7EA50D"/>
<path d="M115.601 114.328C115.588 115.487 112.865 116.393 109.525 116.349C106.185 116.305 103.489 115.332 103.503 114.175C103.516 113.016 106.239 112.11 109.579 112.154C112.919 112.198 115.615 113.171 115.601 114.328Z" fill="#7EA50D"/>
<path d="M96.2988 111.207C96.2076 111.207 96.1198 111.156 96.0725 111.072C96.0083 110.947 96.0556 110.794 96.1806 110.73C101.466 107.958 109.468 109.51 109.809 109.577C109.947 109.604 110.035 109.74 110.008 109.875C109.981 110.013 109.849 110.101 109.711 110.074C109.63 110.057 101.544 108.492 96.417 111.18C96.3799 111.2 96.3393 111.21 96.2988 111.21V111.207Z" fill="#10081E"/>
<path d="M86.7474 111.085C86.7069 111.085 86.663 111.075 86.6258 111.055C81.5698 108.235 73.447 109.598 73.3659 109.611C73.2308 109.631 73.0957 109.544 73.0721 109.405C73.0484 109.266 73.1396 109.134 73.2781 109.111C73.6192 109.053 81.6576 107.704 86.8724 110.609C86.994 110.676 87.0379 110.832 86.9703 110.953C86.923 111.038 86.8386 111.082 86.7474 111.082V111.085Z" fill="#10081E"/>
<path d="M59.0691 102.504C56.9109 99.4716 57.6168 95.2589 60.6464 93.0985C63.676 90.9381 67.8843 91.6447 70.0425 94.6774" fill="#9FC530"/>
<path d="M59.0722 102.758C58.9945 102.758 58.9134 102.721 58.8661 102.653C57.782 101.132 57.3564 99.2789 57.6638 97.4329C57.9711 95.5903 58.981 93.9776 60.5008 92.8923C63.6385 90.6541 68.0123 91.3878 70.2516 94.5287C70.3326 94.6436 70.3056 94.8025 70.1941 94.8837C70.0793 94.9648 69.9206 94.9378 69.8395 94.8262C67.7657 91.9118 63.706 91.2289 60.7947 93.3048C59.3829 94.3123 58.4507 95.8067 58.1636 97.5174C57.8765 99.2282 58.2717 100.946 59.2782 102.359C59.3593 102.474 59.3322 102.633 59.2208 102.714C59.1769 102.744 59.1262 102.761 59.0755 102.761L59.0722 102.758Z" fill="#7EA50D"/>
<path d="M114.122 100.449C115.462 98.5894 118.06 98.1668 119.917 99.5124C121.775 100.855 122.197 103.455 120.853 105.314" fill="#9FC530"/>
<path d="M120.853 105.567C120.802 105.567 120.752 105.551 120.704 105.52C120.589 105.439 120.566 105.28 120.647 105.165C121.903 103.421 121.511 100.976 119.769 99.7184C118.026 98.4573 115.584 98.8529 114.328 100.597C114.247 100.709 114.088 100.736 113.973 100.655C113.858 100.574 113.834 100.415 113.916 100.3C115.337 98.3289 118.097 97.8826 120.066 99.306C122.035 100.729 122.481 103.492 121.059 105.463C121.008 105.53 120.931 105.567 120.853 105.567V105.567Z" fill="#7EA50D"/>
<path d="M86.9094 130.231C86.3454 133.599 83.1571 135.874 79.7931 135.306C76.4292 134.742 74.1561 131.55 74.7236 128.183" fill="#9FC530"/>
<path d="M80.8201 135.644C80.4688 135.644 80.1108 135.614 79.7528 135.557C76.2537 134.968 73.8861 131.641 74.4738 128.142C74.4974 128.003 74.6258 127.905 74.7643 127.932C74.9027 127.956 74.9939 128.088 74.9737 128.223C74.4333 131.449 76.6151 134.512 79.8372 135.056C83.0593 135.597 86.1227 133.413 86.663 130.188C86.6867 130.049 86.815 129.954 86.9535 129.978C87.092 130.002 87.1832 130.133 87.1629 130.269C86.636 133.41 83.907 135.641 80.8234 135.641L80.8201 135.644Z" fill="#7EA50D"/>
<path d="M56.3808 119.605C56.249 120.4 55.0196 120.853 53.6416 120.62C52.2636 120.386 51.2504 119.558 51.3821 118.763" fill="#9FC530"/>
<path d="M54.361 120.937C54.1178 120.937 53.8611 120.917 53.6011 120.873C52.061 120.613 50.9768 119.669 51.1355 118.726C51.1592 118.588 51.2875 118.493 51.426 118.517C51.5645 118.54 51.6557 118.672 51.6354 118.807C51.5273 119.45 52.4663 120.166 53.6855 120.373C54.9048 120.579 56.0261 120.207 56.1342 119.565C56.1578 119.426 56.2862 119.331 56.4246 119.355C56.5631 119.379 56.6543 119.511 56.634 119.646C56.5023 120.43 55.56 120.934 54.3644 120.934L54.361 120.937Z" fill="#7EA50D"/>
<path d="M66.4792 119.439C66.1043 121.674 63.4024 123.084 60.4403 122.587C57.4817 122.09 55.3843 119.876 55.7592 117.637" fill="#9FC530"/>
<path d="M61.6326 122.942C61.2273 122.942 60.8152 122.908 60.3998 122.837C57.306 122.317 55.1141 119.967 55.5126 117.597C55.5362 117.458 55.6646 117.364 55.8031 117.387C55.9415 117.411 56.0327 117.54 56.0125 117.678C55.6612 119.771 57.6674 121.86 60.4842 122.334C61.8622 122.564 63.2233 122.378 64.3143 121.81C65.3815 121.252 66.0638 120.396 66.2327 119.396C66.2563 119.257 66.3846 119.162 66.5231 119.186C66.6616 119.21 66.7528 119.342 66.7325 119.477C66.5366 120.64 65.7632 121.627 64.5507 122.259C63.6928 122.706 62.6863 122.936 61.6359 122.936L61.6326 122.942Z" fill="#7EA50D"/>
<path d="M123.065 115.991C122.933 116.785 121.704 117.238 120.326 117.005C118.944 116.772 117.935 115.943 118.066 115.149" fill="#9FC530"/>
<path d="M121.045 117.323C120.802 117.323 120.546 117.303 120.285 117.259C119.576 117.14 118.931 116.867 118.468 116.488C117.969 116.079 117.739 115.589 117.817 115.112C117.84 114.973 117.969 114.879 118.107 114.902C118.246 114.926 118.337 115.058 118.316 115.193C118.269 115.484 118.435 115.802 118.789 116.092C119.181 116.417 119.742 116.65 120.367 116.755C121.589 116.961 122.707 116.589 122.815 115.947C122.839 115.808 122.967 115.714 123.106 115.737C123.244 115.761 123.335 115.893 123.315 116.028C123.183 116.813 122.244 117.316 121.045 117.316V117.323Z" fill="#7EA50D"/>
<path d="M133.16 115.829C132.785 118.063 130.084 119.473 127.122 118.976C124.163 118.479 122.065 116.265 122.44 114.027" fill="#9FC530"/>
<path d="M128.3 119.328C127.902 119.328 127.493 119.294 127.081 119.226C125.595 118.976 124.271 118.303 123.349 117.33C122.41 116.336 121.998 115.149 122.194 113.989C122.217 113.851 122.346 113.756 122.484 113.78C122.623 113.803 122.714 113.935 122.694 114.071C122.525 115.071 122.889 116.106 123.717 116.982C124.565 117.877 125.787 118.496 127.165 118.729C129.982 119.203 132.559 117.884 132.91 115.791C132.934 115.653 133.062 115.558 133.201 115.582C133.339 115.605 133.43 115.737 133.41 115.873C133.066 117.925 130.887 119.331 128.3 119.331V119.328Z" fill="#7EA50D"/>
<path d="M101.388 130.718C101.267 131.452 100.128 131.875 98.8518 131.658C97.5751 131.442 96.6362 130.674 96.7612 129.941" fill="#9FC530"/>
<path d="M99.5171 131.969C99.2908 131.969 99.051 131.949 98.8112 131.908C98.1492 131.797 97.548 131.543 97.1225 131.192C96.653 130.806 96.4368 130.346 96.5145 129.9C96.5382 129.761 96.6665 129.667 96.805 129.69C96.9435 129.714 97.0346 129.846 97.0144 129.981C96.957 130.333 97.2609 130.644 97.4467 130.796C97.8081 131.093 98.3248 131.31 98.899 131.408C100.017 131.594 101.047 131.259 101.145 130.674C101.169 130.536 101.297 130.441 101.435 130.465C101.574 130.488 101.665 130.62 101.645 130.755C101.52 131.492 100.642 131.966 99.5238 131.966L99.5171 131.969Z" fill="#7EA50D"/>
<path d="M110.737 130.566C110.389 132.635 107.887 133.94 105.144 133.48C102.402 133.021 100.463 130.968 100.811 128.899" fill="#9FC530"/>
<path d="M106.238 133.825C105.867 133.825 105.488 133.795 105.107 133.731C103.729 133.497 102.496 132.872 101.638 131.969C100.763 131.043 100.382 129.941 100.564 128.859C100.588 128.72 100.716 128.625 100.855 128.649C100.993 128.673 101.084 128.801 101.064 128.94C100.909 129.86 101.246 130.813 102.006 131.618C102.786 132.443 103.918 133.014 105.191 133.23C107.792 133.666 110.166 132.453 110.49 130.526C110.514 130.387 110.642 130.289 110.781 130.316C110.919 130.34 111.011 130.471 110.99 130.607C110.669 132.517 108.643 133.825 106.238 133.825V133.825Z" fill="#7EA50D"/>
<path d="M90.9624 87.9764C90.9118 89.0212 89.4865 89.8055 87.7808 89.721C86.0752 89.6365 84.731 88.7236 84.7817 87.6755" fill="#9FC530"/>
<path d="M88.0373 89.9814C87.9495 89.9814 87.8616 89.9814 87.7704 89.9747C85.896 89.8834 84.474 88.8691 84.5315 87.6655C84.5382 87.5269 84.6699 87.4153 84.7983 87.4254C84.9368 87.4322 85.0448 87.5505 85.0381 87.6925C84.9942 88.5817 86.2573 89.3965 87.7941 89.4709C89.341 89.5453 90.6683 88.8556 90.7088 87.9664C90.7156 87.8278 90.8507 87.7196 90.9756 87.7264C91.1141 87.7331 91.2222 87.8514 91.2155 87.9934C91.1614 89.1396 89.7834 89.9848 88.0373 89.9848V89.9814Z" fill="#7EA50D"/>
<path d="M103.186 86.1746C103.044 89.1262 99.96 91.3711 96.3022 91.1953C92.6445 91.0161 89.7939 88.4804 89.9357 85.5322" fill="#9FC530"/>
<path d="M96.7075 91.4591C96.569 91.4591 96.4271 91.4591 96.2887 91.4489C92.4958 91.263 89.5304 88.6056 89.6823 85.5188C89.6891 85.3802 89.8208 85.2686 89.9492 85.2787C90.0876 85.2855 90.1957 85.4038 90.189 85.5458C90.0539 88.352 92.7997 90.7727 96.3157 90.9452C98.028 91.0263 99.6627 90.5699 100.916 89.657C102.152 88.7543 102.871 87.5169 102.935 86.1679C102.942 86.0293 103.077 85.9177 103.202 85.9279C103.341 85.9346 103.449 86.053 103.442 86.195C103.368 87.6995 102.577 89.0755 101.216 90.0695C99.9735 90.9756 98.3861 91.4658 96.7142 91.4658L96.7075 91.4591Z" fill="#7EA50D"/>
<path d="M58.3056 109.375C58.3056 109.375 55.2963 106.788 49.2236 108.536Z" fill="#9FC530"/>
<path d="M58.3056 109.628C58.2482 109.628 58.1908 109.608 58.1401 109.567C58.1097 109.544 55.1443 107.096 49.2946 108.78C49.1595 108.817 49.021 108.739 48.9805 108.607C48.9433 108.472 49.021 108.333 49.1527 108.293C55.2828 106.528 58.3428 109.074 58.4678 109.185C58.5725 109.277 58.586 109.435 58.4948 109.544C58.4441 109.601 58.3732 109.632 58.3023 109.632L58.3056 109.628Z" fill="#7EA50D"/>
<path d="M117.695 126.938C117.695 126.938 119.009 130.242 124.885 131.209Z" fill="#9FC530"/>
<path d="M124.889 131.462C124.889 131.462 124.862 131.462 124.848 131.462C118.897 130.485 117.519 127.175 117.462 127.036C117.411 126.908 117.475 126.759 117.604 126.709C117.732 126.658 117.88 126.722 117.931 126.851C117.951 126.894 119.296 130.039 124.929 130.965C125.068 130.989 125.162 131.117 125.139 131.256C125.118 131.381 125.01 131.469 124.889 131.469V131.462Z" fill="#7EA50D"/>
<path d="M95.6164 137.585C95.6164 137.585 93.0765 136.337 92.732 136.114C90.9386 134.944 90.3036 132.51 91.2257 130.59C92.249 128.463 94.897 127.418 97.0923 128.27C96.4709 128.03 95.4205 127.222 94.9004 126.783C94.9004 126.783 93.5561 125.613 93.2758 124.017C92.6577 120.498 96.4945 117.6 99.5342 119.406C103.374 121.684 107.616 123.145 111.973 124.058C113.689 124.416 115.425 124.676 117.134 125.072L119.063 125.522L114.75 120.379C112.723 117.965 114.246 114.27 117.381 113.986L117.492 113.976C119.245 113.817 120.954 114.358 122.275 115.477L130.617 122.533C132.66 124.261 135.089 125.457 137.686 126.032L138.841 126.245C138.936 126.259 161.426 130.4 161.426 130.4L163.888 118.712L189.935 126.357L188.054 149.405C187.52 160.203 177.915 168.26 167.202 166.898L132.117 161.218L126.936 160.714C117.766 159.821 109.231 159.155 99.595 156.207C97.0754 155.277 94.6909 154.446 94.6065 151.257C94.5457 148.904 96.1973 146.737 98.5075 147.187C98.5075 147.187 94.7146 146.189 93.2522 144.972C90.5063 142.687 90.8879 136.104 95.6164 137.595V137.585Z" fill="#FAB7C9"/>
<path d="M169.522 167.29C168.738 167.29 167.952 167.239 167.168 167.141L132.076 161.461L125.014 160.778C116.53 159.963 108.515 159.196 99.5209 156.444L99.406 156.403C96.9641 155.504 94.4412 154.578 94.3533 151.261C94.3162 149.841 94.887 148.451 95.8462 147.64C96.2008 147.339 96.5892 147.126 97.0046 147.001C95.7516 146.592 94.0021 145.926 93.0868 145.165C91.371 143.738 90.7462 140.56 91.7966 138.623C92.2965 137.707 93.1071 137.196 94.1169 137.132C93.4516 136.797 92.7626 136.446 92.5903 136.331C90.7091 135.103 90.0099 132.534 90.9961 130.485C91.854 128.703 93.7758 127.638 95.6908 127.726C95.3092 127.449 94.9579 127.168 94.735 126.976C94.6742 126.925 93.3165 125.725 93.026 124.061C92.7085 122.263 93.4718 120.481 95.0153 119.413C96.471 118.405 98.207 118.32 99.6627 119.186C103.179 121.272 107.34 122.827 112.024 123.808C112.744 123.956 113.477 124.092 114.189 124.224C115.175 124.406 116.195 124.592 117.192 124.822L118.384 125.099L114.557 120.538C113.544 119.331 113.298 117.742 113.899 116.285C114.5 114.828 115.793 113.871 117.361 113.729L117.469 113.719C119.289 113.557 121.056 114.108 122.44 115.278L130.783 122.334C132.779 124.021 135.183 125.214 137.74 125.779L138.888 125.988C138.973 126.002 158.025 129.508 161.234 130.1L163.645 118.652C163.659 118.581 163.703 118.523 163.763 118.486C163.824 118.449 163.895 118.439 163.966 118.459L190.013 126.103C190.128 126.137 190.206 126.249 190.195 126.367L188.314 149.415C188.054 154.699 185.676 159.49 181.617 162.895C178.222 165.741 173.919 167.287 169.532 167.287L169.522 167.29ZM97.903 147.373C97.2715 147.373 96.6804 147.593 96.1772 148.022C95.3328 148.739 94.8296 149.973 94.8633 151.244C94.941 154.216 97.0925 155.007 99.5816 155.923L99.683 155.96C108.613 158.692 116.604 159.46 125.061 160.271L132.14 160.957L167.239 166.641C172.339 167.29 177.331 165.823 181.279 162.513C185.227 159.199 187.544 154.54 187.797 149.388L189.662 126.536L164.074 119.027L161.669 130.448C161.642 130.583 161.511 130.671 161.376 130.644C161.153 130.603 139.017 126.526 138.794 126.489L137.632 126.276C134.988 125.691 132.505 124.46 130.448 122.722L122.106 115.666C120.826 114.585 119.191 114.071 117.509 114.223L117.401 114.233C116.023 114.358 114.888 115.196 114.361 116.478C113.835 117.759 114.051 119.156 114.939 120.214L119.252 125.356C119.323 125.441 119.33 125.559 119.276 125.65C119.218 125.745 119.107 125.789 119.002 125.765L117.073 125.316C116.091 125.086 115.074 124.9 114.095 124.721C113.382 124.589 112.642 124.453 111.919 124.301C107.178 123.311 102.969 121.735 99.4026 119.619C98.1226 118.858 96.5892 118.936 95.3024 119.828C93.9244 120.782 93.2422 122.371 93.5225 123.97C93.7826 125.454 95.0525 126.577 95.066 126.59C95.603 127.047 96.6129 127.811 97.1803 128.034C97.312 128.085 97.3762 128.233 97.3255 128.362C97.2748 128.494 97.1296 128.558 96.9979 128.507C94.9106 127.699 92.4248 128.683 91.4555 130.701C90.5773 132.527 91.1988 134.813 92.8706 135.901C93.1408 136.077 95.0255 137.014 95.728 137.355C95.8462 137.413 95.9002 137.555 95.8529 137.676C95.8023 137.798 95.6672 137.866 95.5422 137.825C93.6171 137.217 92.6883 138.052 92.2492 138.86C91.2967 140.608 91.8642 143.478 93.4178 144.766C94.8194 145.933 98.538 146.92 98.5752 146.93C98.7069 146.964 98.7879 147.099 98.7575 147.231C98.7271 147.366 98.5954 147.451 98.4637 147.424C98.2746 147.386 98.0888 147.369 97.9064 147.369L97.903 147.373Z" fill="#10081E"/>
<path d="M168.746 132.169C168.746 132.169 168.712 132.169 168.695 132.165L158.64 130.14C158.502 130.113 158.414 129.978 158.441 129.843C158.468 129.704 158.6 129.616 158.738 129.643L168.793 131.668C168.931 131.695 169.019 131.831 168.992 131.966C168.968 132.087 168.864 132.169 168.746 132.169V132.169Z" fill="#10081E"/>
<path d="M112.524 149.652C112.524 149.652 106.779 150.449 98.0112 147.038Z" fill="#FFB9BD"/>
<path d="M110.907 149.98C108.576 149.98 103.929 149.611 97.9203 147.271C97.7886 147.221 97.7245 147.075 97.7751 146.943C97.8258 146.812 97.9744 146.747 98.1027 146.798C106.702 150.142 112.433 149.405 112.491 149.398C112.629 149.378 112.758 149.476 112.778 149.614C112.798 149.753 112.7 149.882 112.562 149.902C112.545 149.902 111.964 149.98 110.907 149.98V149.98Z" fill="#10081E"/>
<path d="M113.186 140.746C113.186 140.746 104.577 141.402 95.9209 137.713Z" fill="#FFB9BD"/>
<path d="M111.629 141.044C108.728 141.044 102.257 140.692 95.8228 137.947C95.6945 137.893 95.6337 137.744 95.6877 137.615C95.7417 137.487 95.8904 137.43 96.0187 137.48C104.516 141.101 113.082 140.503 113.166 140.496C113.308 140.489 113.426 140.591 113.436 140.729C113.446 140.868 113.342 140.99 113.203 141C113.183 141 112.609 141.04 111.626 141.04L111.629 141.044Z" fill="#10081E"/>
<path d="M114.699 132.213C114.699 132.213 105.347 132.199 96.8496 128.156Z" fill="#FFB9BD"/>
<path d="M114.7 132.466C114.605 132.466 105.192 132.409 96.7417 128.382C96.6167 128.321 96.5627 128.169 96.6201 128.044C96.6809 127.919 96.8295 127.865 96.9578 127.922C105.307 131.898 114.605 131.956 114.7 131.956C114.838 131.956 114.953 132.071 114.953 132.209C114.953 132.348 114.838 132.463 114.7 132.463V132.466Z" fill="#10081E"/>
<path d="M190.23 127.189L163.244 121.762L164.105 117.029L189.936 122.773L190.23 127.189Z" fill="#FFFBFA"/>
<path d="M190.229 127.442C190.229 127.442 190.196 127.442 190.179 127.439L163.193 122.012C163.058 121.985 162.97 121.853 162.994 121.718L163.855 116.988C163.868 116.921 163.905 116.86 163.963 116.823C164.02 116.785 164.091 116.772 164.159 116.785L189.99 122.53C190.098 122.553 190.179 122.648 190.185 122.76L190.479 127.175C190.486 127.253 190.452 127.331 190.395 127.381C190.348 127.422 190.29 127.445 190.229 127.445V127.442ZM163.537 121.563L189.956 126.874L189.696 122.979L164.307 117.333L163.537 121.559V121.563Z" fill="#10081E"/>
<path d="M94.8633 137.585C94.8633 137.585 97.4032 136.338 97.7477 136.114C99.5411 134.945 100.176 132.51 99.254 130.59C98.2306 128.463 95.5827 127.419 93.3874 128.271C94.0088 128.031 95.0592 127.222 95.5793 126.783C95.5793 126.783 96.9236 125.613 97.2039 124.017C97.822 120.498 93.9852 117.6 90.9455 119.406C87.1053 121.685 82.8632 123.145 78.5063 124.058C76.7905 124.416 75.0545 124.677 73.3455 125.072L71.417 125.522L75.73 120.379C77.7565 117.965 76.2332 114.27 73.099 113.986L72.9875 113.976C71.2346 113.817 69.5256 114.358 68.205 115.477L59.8627 122.533C57.8194 124.261 55.391 125.458 52.7937 126.032L51.6386 126.245C51.544 126.259 29.0536 130.401 29.0536 130.401L26.5914 118.713L0.544434 126.357L2.42568 149.405C2.95932 160.204 12.5648 168.26 23.2781 166.898L58.3631 161.218L63.5441 160.714C72.7139 159.821 81.2488 159.155 90.8847 156.207C93.4076 155.278 95.7887 154.446 95.8732 151.258C95.934 148.904 94.2824 146.737 91.9722 147.187C91.9722 147.187 95.7651 146.19 97.2275 144.972C99.9734 142.687 99.5917 136.104 94.8633 137.595V137.585Z" fill="#FAB7C9"/>
<path d="M20.9615 167.287C16.5675 167.287 12.268 165.741 8.87361 162.895C4.8139 159.49 2.43617 154.699 2.17611 149.405L0.294866 126.364C0.284734 126.242 0.359038 126.134 0.477249 126.1L26.5242 118.456C26.5917 118.435 26.6661 118.445 26.7268 118.483C26.7876 118.52 26.8315 118.577 26.8451 118.648L29.2566 130.096C32.4651 129.505 51.514 125.998 51.6086 125.985L52.7569 125.775C55.3035 125.211 57.7116 124.021 59.7077 122.334L68.05 115.278C69.4348 114.108 71.1978 113.553 73.0183 113.719L73.1297 113.729C74.6969 113.871 75.9904 114.828 76.5916 116.285C77.1928 117.742 76.9463 119.335 75.933 120.542L72.1064 125.103L73.2986 124.825C74.295 124.595 75.3149 124.406 76.2978 124.227C77.0071 124.095 77.7433 123.96 78.4627 123.811C83.1473 122.831 87.3083 121.275 90.8242 119.189C92.2799 118.327 94.0159 118.412 95.4716 119.416C97.0151 120.484 97.7784 122.266 97.4609 124.065C97.1671 125.731 95.8094 126.928 95.7519 126.979C95.5256 127.172 95.1744 127.456 94.7927 127.73C96.7078 127.638 98.6295 128.703 99.4874 130.488C100.474 132.537 99.7745 135.107 97.8932 136.334C97.7176 136.449 97.0286 136.801 96.3633 137.135C97.3731 137.2 98.1837 137.71 98.6836 138.626C99.7373 140.56 99.1125 143.738 97.3968 145.168C96.4815 145.929 94.7319 146.595 93.4789 147.004C93.8943 147.129 94.2827 147.342 94.6374 147.643C95.5966 148.455 96.1674 149.844 96.1302 151.268C96.0424 154.584 93.5194 155.511 91.0775 156.41L90.9762 156.447C81.9685 159.203 73.9538 159.97 65.4697 160.785L58.3905 161.471L23.3224 167.148C22.5354 167.249 21.7485 167.297 20.9615 167.297V167.287ZM0.814995 126.533L2.67935 149.374C2.93266 154.534 5.2496 159.196 9.19784 162.509C13.1461 165.823 18.138 167.29 23.2481 166.637L58.323 160.957L65.419 160.268C73.8762 159.456 81.8672 158.689 90.8141 155.954L90.9019 155.92C93.3911 155.004 95.5425 154.212 95.6202 151.241C95.654 149.969 95.1508 148.735 94.3064 148.019C93.6545 147.467 92.8676 147.261 92.0232 147.427C91.8915 147.454 91.7598 147.369 91.7294 147.234C91.699 147.102 91.7801 146.967 91.9118 146.933C91.9489 146.923 95.6675 145.936 97.0691 144.769C98.6194 143.478 99.1868 140.608 98.2377 138.863C97.7987 138.058 96.8699 137.223 94.9447 137.828C94.8164 137.869 94.6813 137.805 94.634 137.68C94.5833 137.558 94.6374 137.416 94.759 137.358C95.4615 137.014 97.3461 136.08 97.6163 135.905C99.2881 134.813 99.9096 132.527 99.0314 130.705C98.0621 128.686 95.5729 127.702 93.4857 128.511C93.3539 128.561 93.2087 128.497 93.1581 128.365C93.1074 128.233 93.1716 128.088 93.3033 128.037C93.8707 127.817 94.8806 127.053 95.4209 126.59C95.4311 126.58 96.701 125.458 96.9611 123.973C97.2414 122.371 96.5592 120.785 95.1811 119.832C93.8943 118.942 92.361 118.865 91.0809 119.622C87.5143 121.739 83.3026 123.314 78.5641 124.305C77.8413 124.457 77.1016 124.592 76.389 124.724C75.4095 124.903 74.3963 125.089 73.4101 125.319L71.4782 125.769C71.3735 125.796 71.262 125.748 71.2046 125.654C71.1472 125.562 71.1573 125.441 71.2282 125.36L75.5412 120.217C76.4295 119.159 76.6457 117.763 76.1188 116.481C75.5919 115.2 74.4571 114.361 73.0791 114.236L72.9676 114.226C71.2856 114.071 69.651 114.584 68.3709 115.67L60.0286 122.726C57.9717 124.467 55.4893 125.694 52.8515 126.279L51.6863 126.492C51.4566 126.533 29.3241 130.607 29.1012 130.647C28.9661 130.674 28.8344 130.586 28.8074 130.451L26.4026 119.03L0.814995 126.539V126.533Z" fill="#10081E"/>
<path d="M21.7348 132.169C21.6166 132.169 21.5119 132.084 21.4883 131.966C21.4613 131.827 21.5491 131.695 21.6875 131.668L31.7422 129.643C31.8807 129.616 32.0124 129.704 32.0395 129.843C32.0665 129.981 31.9787 130.113 31.8402 130.14L21.7855 132.165C21.7686 132.165 21.7517 132.169 21.7348 132.169V132.169Z" fill="#10081E"/>
<path d="M77.9561 149.652C77.9561 149.652 83.7011 150.449 92.469 147.038Z" fill="#FFB9BD"/>
<path d="M79.5735 149.98C78.5197 149.98 77.9388 149.905 77.9185 149.902C77.78 149.882 77.6821 149.753 77.7024 149.614C77.7226 149.476 77.851 149.378 77.9894 149.398C78.0469 149.408 83.7818 150.145 92.3774 146.798C92.5058 146.747 92.6544 146.812 92.705 146.943C92.7557 147.075 92.6915 147.221 92.5598 147.271C86.5513 149.611 81.9039 149.98 79.5735 149.98V149.98Z" fill="#10081E"/>
<path d="M77.2939 140.746C77.2939 140.746 85.9031 141.402 94.5595 137.714Z" fill="#FFB9BD"/>
<path d="M78.851 141.044C77.8682 141.044 77.294 141.003 77.2738 141.003C77.1353 140.993 77.0306 140.871 77.0407 140.733C77.0508 140.594 77.1724 140.489 77.3109 140.499C77.3954 140.506 85.9606 141.108 94.4583 137.484C94.5866 137.43 94.7352 137.487 94.7893 137.619C94.8433 137.747 94.7825 137.896 94.6542 137.95C88.2201 140.692 81.7489 141.047 78.8477 141.047L78.851 141.044Z" fill="#10081E"/>
<path d="M75.7842 132.213C75.7842 132.213 85.1364 132.199 93.634 128.156Z" fill="#FFB9BD"/>
<path d="M75.7841 132.466C75.6456 132.466 75.5308 132.355 75.5308 132.213C75.5308 132.074 75.6422 131.959 75.7841 131.959C75.8786 131.959 85.1802 131.898 93.5259 127.926C93.6542 127.865 93.8028 127.919 93.8636 128.047C93.9244 128.172 93.8704 128.325 93.742 128.385C85.2916 132.409 75.8786 132.47 75.7841 132.47V132.466Z" fill="#10081E"/>
<path d="M0.250488 127.189L27.2364 121.762L26.3751 117.029L0.544327 122.773L0.250488 127.189Z" fill="#FFFBFA"/>
<path d="M0.250858 127.442C0.190064 127.442 0.12927 127.418 0.0853627 127.378C0.0245685 127.327 -0.00582865 127.249 0.000926264 127.172L0.294765 122.756C0.30152 122.645 0.382579 122.55 0.490657 122.526L26.3215 116.782C26.389 116.768 26.4599 116.782 26.5173 116.819C26.5748 116.856 26.6153 116.917 26.6254 116.985L27.4867 121.715C27.5103 121.85 27.4225 121.982 27.2874 122.009L0.30152 127.435C0.30152 127.435 0.267745 127.439 0.250858 127.439V127.442ZM0.784496 122.979L0.524432 126.874L26.9429 121.563L26.1728 117.336L0.784496 122.983V122.979Z" fill="#10081E"/>
</svg>
