<svg width="32" height="22" viewBox="0 0 32 22" fill="none" xmlns="http://www.w3.org/2000/svg">
<path d="M0.875 22V18.15C0.875 17.3708 1.07575 16.6549 1.47725 16.0022C1.87875 15.3496 2.41133 14.8509 3.075 14.5063C4.49583 13.7958 5.93958 13.2632 7.40625 12.9085C8.87292 12.5538 10.3625 12.3759 11.875 12.375C13.3875 12.375 14.8771 12.5528 16.3438 12.9085C17.8104 13.2642 19.2542 13.7968 20.675 14.5063C21.3396 14.85 21.8726 15.3487 22.2741 16.0022C22.6756 16.6558 22.8759 17.3718 22.875 18.15V22H0.875ZM25.625 22V17.875C25.625 16.8667 25.3445 15.8982 24.7835 14.9696C24.2225 14.041 23.4259 13.2449 22.3937 12.5812C23.5625 12.7187 24.6625 12.9539 25.6937 13.2866C26.725 13.6194 27.6875 14.0259 28.5812 14.5063C29.4062 14.9646 30.0365 15.4742 30.4719 16.0352C30.9073 16.5963 31.125 17.2095 31.125 17.875V22H25.625ZM11.875 11C10.3625 11 9.06771 10.4615 7.99063 9.38437C6.91354 8.30729 6.375 7.0125 6.375 5.5C6.375 3.9875 6.91354 2.69271 7.99063 1.61563C9.06771 0.538542 10.3625 0 11.875 0C13.3875 0 14.6823 0.538542 15.7594 1.61563C16.8365 2.69271 17.375 3.9875 17.375 5.5C17.375 7.0125 16.8365 8.30729 15.7594 9.38437C14.6823 10.4615 13.3875 11 11.875 11ZM25.625 5.5C25.625 7.0125 25.0865 8.30729 24.0094 9.38437C22.9323 10.4615 21.6375 11 20.125 11C19.8729 11 19.5521 10.9716 19.1625 10.9147C18.7729 10.8579 18.4521 10.7947 18.2 10.725C18.8188 9.99167 19.2945 9.17812 19.6272 8.28437C19.96 7.39062 20.1259 6.4625 20.125 5.5C20.125 4.5375 19.9591 3.60937 19.6272 2.71562C19.2954 1.82187 18.8197 1.00833 18.2 0.275C18.5208 0.160416 18.8417 0.0861668 19.1625 0.0522501C19.4833 0.0183335 19.8042 0.000916667 20.125 0C21.6375 0 22.9323 0.538542 24.0094 1.61563C25.0865 2.69271 25.625 3.9875 25.625 5.5Z" fill="white"/>
</svg>
