<svg width="22" height="22" viewBox="0 0 22 22" fill="none" xmlns="http://www.w3.org/2000/svg">
<path fill-rule="evenodd" clip-rule="evenodd" d="M16.5379 6.50643C16.818 6.27315 17.1793 6.16064 17.5423 6.19364C17.9054 6.22664 18.2405 6.40246 18.4739 6.68243L21.338 10.1199C21.5611 10.4011 21.6654 10.7584 21.6287 11.1155C21.5919 11.4726 21.4169 11.8011 21.1412 12.0309C20.8654 12.2607 20.5107 12.3735 20.1529 12.3453C19.795 12.3171 19.4624 12.1501 19.226 11.8799L16.3619 8.44244C16.1286 8.16232 16.0161 7.80104 16.0491 7.438C16.0821 7.07496 16.2579 6.73988 16.5379 6.50643Z" fill="white"/>
<path fill-rule="evenodd" clip-rule="evenodd" d="M16.5387 15.4936C16.2585 15.2603 16.0825 14.9254 16.0492 14.5623C16.0159 14.1993 16.1282 13.8379 16.3613 13.5576L19.2268 10.1201C19.3408 9.97646 19.4823 9.85707 19.6431 9.76895C19.8039 9.68083 19.9807 9.62576 20.1631 9.60697C20.3454 9.58818 20.5297 9.60606 20.7051 9.65954C20.8805 9.71303 21.0434 9.80105 21.1842 9.91843C21.3251 10.0358 21.441 10.1802 21.5253 10.343C21.6095 10.5059 21.6603 10.6839 21.6747 10.8667C21.6891 11.0495 21.6668 11.2333 21.6091 11.4073C21.5515 11.5813 21.4596 11.7421 21.3388 11.8801L18.4747 15.3176C18.2413 15.5976 17.9062 15.7734 17.5432 15.8064C17.1801 15.8394 16.8188 15.7269 16.5387 15.4936Z" fill="white"/>
<path fill-rule="evenodd" clip-rule="evenodd" d="M19.9375 11C19.9375 11.3647 19.7926 11.7144 19.5348 11.9723C19.2769 12.2301 18.9272 12.375 18.5625 12.375H9.625C9.26033 12.375 8.91059 12.2301 8.65273 11.9723C8.39487 11.7144 8.25 11.3647 8.25 11C8.25 10.6353 8.39487 10.2856 8.65273 10.0277C8.91059 9.76987 9.26033 9.625 9.625 9.625H18.5625C18.9272 9.625 19.2769 9.76987 19.5348 10.0277C19.7926 10.2856 19.9375 10.6353 19.9375 11ZM0 1.375C0 1.01033 0.144866 0.660591 0.402728 0.402728C0.660591 0.144866 1.01033 0 1.375 0H13.75C14.1147 0 14.4644 0.144866 14.7223 0.402728C14.9801 0.660591 15.125 1.01033 15.125 1.375C15.125 1.73967 14.9801 2.08941 14.7223 2.34727C14.4644 2.60513 14.1147 2.75 13.75 2.75H1.375C1.01033 2.75 0.660591 2.60513 0.402728 2.34727C0.144866 2.08941 0 1.73967 0 1.375ZM0 20.625C0 20.2603 0.144866 19.9106 0.402728 19.6527C0.660591 19.3949 1.01033 19.25 1.375 19.25H13.75C14.1147 19.25 14.4644 19.3949 14.7223 19.6527C14.9801 19.9106 15.125 20.2603 15.125 20.625C15.125 20.9897 14.9801 21.3394 14.7223 21.5973C14.4644 21.8551 14.1147 22 13.75 22H1.375C1.01033 22 0.660591 21.8551 0.402728 21.5973C0.144866 21.3394 0 20.9897 0 20.625Z" fill="white"/>
<path fill-rule="evenodd" clip-rule="evenodd" d="M13.75 0C14.1147 0 14.4644 0.144866 14.7223 0.402728C14.9801 0.660591 15.125 1.01033 15.125 1.375V6.875C15.125 7.23967 14.9801 7.58941 14.7223 7.84727C14.4644 8.10513 14.1147 8.25 13.75 8.25C13.3853 8.25 13.0356 8.10513 12.7777 7.84727C12.5199 7.58941 12.375 7.23967 12.375 6.875V1.375C12.375 1.01033 12.5199 0.660591 12.7777 0.402728C13.0356 0.144866 13.3853 0 13.75 0ZM13.75 13.75C14.1147 13.75 14.4644 13.8949 14.7223 14.1527C14.9801 14.4106 15.125 14.7603 15.125 15.125V20.625C15.125 20.9897 14.9801 21.3394 14.7223 21.5973C14.4644 21.8551 14.1147 22 13.75 22C13.3853 22 13.0356 21.8551 12.7777 21.5973C12.5199 21.3394 12.375 20.9897 12.375 20.625V15.125C12.375 14.7603 12.5199 14.4106 12.7777 14.1527C13.0356 13.8949 13.3853 13.75 13.75 13.75ZM1.375 0C1.73967 0 2.08941 0.144866 2.34727 0.402728C2.60513 0.660591 2.75 1.01033 2.75 1.375V20.625C2.75 20.9897 2.60513 21.3394 2.34727 21.5973C2.08941 21.8551 1.73967 22 1.375 22C1.01033 22 0.660591 21.8551 0.402728 21.5973C0.144866 21.3394 0 20.9897 0 20.625V1.375C0 1.01033 0.144866 0.660591 0.402728 0.402728C0.660591 0.144866 1.01033 0 1.375 0Z" fill="white"/>
</svg>
