<svg width="38" height="32" viewBox="0 0 38 32" fill="none" xmlns="http://www.w3.org/2000/svg">
<path d="M23.2494 27.7963L23.2477 27.7977C22.2722 28.5683 21.408 29.2387 20.5774 29.7241C19.7463 30.2099 19.0905 30.4232 18.5439 30.4232C17.9976 30.4232 17.342 30.2097 16.5104 29.7237C15.6793 29.2379 14.8151 28.5679 13.8387 27.7984C13.2959 27.3704 12.744 26.9448 12.1893 26.5171C9.86548 24.7251 7.49244 22.8951 5.5308 20.6865C3.15232 18.0085 1.5 14.8925 1.5 10.8518C1.5 6.90393 3.7305 3.599 6.76618 2.21159C9.70721 0.867448 13.6743 1.21341 17.463 5.15106L18.5438 6.27437L19.6247 5.15118C23.4132 1.21446 27.3804 0.868791 30.3215 2.21318C33.3573 3.60082 35.5878 6.90581 35.5878 10.8536C35.5878 14.8935 33.9359 18.0094 31.5577 20.6872C29.5928 22.8995 27.2144 24.732 24.8862 26.5259C24.3358 26.95 23.7881 27.372 23.2494 27.7963Z" stroke="black" stroke-width="3"/>
</svg>
