<svg width="39" height="39" viewBox="0 0 39 39" fill="none" xmlns="http://www.w3.org/2000/svg">
<path d="M4.33333 39C3.14167 39 2.12189 38.5761 1.274 37.7282C0.426111 36.8803 0.00144444 35.8598 0 34.6667V4.33333C0 3.14167 0.424667 2.12189 1.274 1.274C2.12333 0.426111 3.14311 0.00144444 4.33333 0H34.6667C35.8583 0 36.8788 0.424667 37.7282 1.274C38.5775 2.12333 39.0014 3.14311 39 4.33333V34.6667C39 35.8583 38.5761 36.8788 37.7282 37.7282C36.8803 38.5775 35.8598 39.0014 34.6667 39H4.33333ZM6.5 30.3333H32.5L24.375 19.5L17.875 28.1667L13 21.6667L6.5 30.3333Z" fill="#67B26F"/>
</svg>
