<svg width="25" height="24" viewBox="0 0 25 24" fill="none" xmlns="http://www.w3.org/2000/svg">
<path d="M24.2671 10.9322L19.2593 15.3061L20.7594 21.8179C20.8388 22.1584 20.8161 22.5147 20.6943 22.8423C20.5724 23.1699 20.3568 23.4543 20.0743 23.6599C19.7919 23.8655 19.4551 23.9832 19.1061 23.9983C18.7571 24.0134 18.4115 23.9253 18.1123 23.7448L12.4372 20.3L6.77436 23.7448C6.4752 23.9253 6.12952 24.0134 5.78056 23.9983C5.43159 23.9832 5.09482 23.8655 4.81234 23.6599C4.52987 23.4543 4.31422 23.1699 4.19237 22.8423C4.07052 22.5147 4.04787 22.1584 4.12725 21.8179L5.62514 15.3127L0.616277 10.9322C0.351354 10.7035 0.159787 10.4017 0.0655984 10.0645C-0.0285898 9.72728 -0.0212059 9.36977 0.0868241 9.03676C0.194854 8.70375 0.398721 8.41007 0.67286 8.19255C0.946998 7.97504 1.27921 7.84336 1.62782 7.81405L8.23005 7.24175L10.8072 1.08991C10.9418 0.76711 11.1688 0.491379 11.4596 0.297433C11.7505 0.103488 12.0922 0 12.4417 0C12.7912 0 13.1328 0.103488 13.4237 0.297433C13.7145 0.491379 13.9415 0.76711 14.0761 1.08991L16.6611 7.24175L23.2611 7.81405C23.6097 7.84336 23.9419 7.97504 24.216 8.19255C24.4902 8.41007 24.694 8.70375 24.8021 9.03676C24.9101 9.36977 24.9175 9.72728 24.8233 10.0645C24.7291 10.4017 24.5375 10.7035 24.2726 10.9322H24.2671Z" fill="#1A1B1E"/>
</svg>
