<svg width="25" height="24" viewBox="0 0 25 24" fill="none" xmlns="http://www.w3.org/2000/svg">
<path d="M23.9695 11.3503C23.7661 11.3503 23.5871 11.4439 23.4656 11.5881C23.494 11.5142 23.5116 11.4347 23.5116 11.3503C23.5116 10.9851 23.2155 10.6886 22.8502 10.6886C22.7783 10.6886 22.7104 10.703 22.6456 10.7242C22.4195 8.94797 21.7222 7.26465 20.626 5.84891C20.6868 5.81854 20.7451 5.78018 20.7958 5.72943C20.9141 5.60417 20.9789 5.43773 20.9764 5.26548C20.9738 5.09323 20.9043 4.92875 20.7824 4.807C20.6605 4.68524 20.496 4.6158 20.3237 4.61343C20.1515 4.61107 19.9851 4.67597 19.86 4.79434C19.8319 4.82303 19.8065 4.85419 19.784 4.88745L19.7668 4.87026C19.7996 4.84789 19.8312 4.82311 19.86 4.79434C19.9783 4.66918 20.0432 4.5028 20.0409 4.33055C20.0385 4.1583 19.9691 3.99376 19.8473 3.8719C19.7255 3.75003 19.5611 3.68045 19.3888 3.67794C19.2166 3.67543 19.0501 3.74019 18.9249 3.85845C18.8761 3.90826 18.8356 3.96561 18.805 4.02829C17.3892 2.93229 15.7059 2.2351 13.9297 2.00906C13.9524 1.94304 13.9644 1.87384 13.9653 1.80406C13.9653 1.43881 13.6692 1.1431 13.304 1.1431C13.22 1.1431 13.1401 1.16028 13.0658 1.18906C13.21 1.06757 13.304 0.88815 13.304 0.684748C13.307 0.595964 13.2922 0.507466 13.2604 0.424532C13.2285 0.341598 13.1803 0.265925 13.1186 0.202025C13.0569 0.138125 12.9829 0.0873052 12.9011 0.0525964C12.8194 0.0178876 12.7314 0 12.6426 0C12.5538 0 12.4658 0.0178876 12.3841 0.0525964C12.3023 0.0873052 12.2283 0.138125 12.1666 0.202025C12.1049 0.265925 12.0567 0.341598 12.0248 0.424532C11.993 0.507466 11.9782 0.595964 11.9812 0.684748C11.9812 0.88815 12.0752 1.06757 12.2194 1.18906C12.1436 1.15903 12.0628 1.14345 11.9812 1.1431C11.6164 1.1431 11.3203 1.43881 11.3203 1.80406C11.3203 1.87599 11.3347 1.94392 11.3559 2.00906C9.57953 2.23509 7.89607 2.93243 6.48021 4.02869C6.44968 3.96595 6.40935 3.90849 6.36073 3.85845C6.23582 3.73833 6.06878 3.672 5.89549 3.67372C5.72221 3.67543 5.55651 3.74505 5.434 3.86761C5.31149 3.99017 5.24195 4.1559 5.24031 4.32918C5.23867 4.50247 5.30507 4.66948 5.42524 4.79434C5.45441 4.82311 5.48598 4.84829 5.51875 4.87066L5.50157 4.88785C5.47908 4.85438 5.45353 4.82308 5.42524 4.79434C5.29983 4.67737 5.1339 4.61366 4.96244 4.61662C4.79097 4.61959 4.62735 4.68901 4.50606 4.81025C4.38477 4.93149 4.31528 5.09508 4.31224 5.26654C4.3092 5.43801 4.37284 5.60396 4.48975 5.72943C4.5409 5.78018 4.59885 5.81814 4.65959 5.84891C3.56347 7.26469 2.86614 8.94799 2.63996 10.7242C2.57409 10.7015 2.50502 10.6895 2.43536 10.6886C2.07012 10.6886 1.774 10.9851 1.774 11.3503C1.774 11.4343 1.79119 11.5138 1.81956 11.5877C1.75805 11.5138 1.68111 11.4542 1.59412 11.4132C1.50713 11.3722 1.41222 11.3507 1.31605 11.3503C0.950808 11.3503 0.654696 11.6469 0.654297 12.0117C0.654297 12.3765 0.950808 12.6731 1.31565 12.6731C1.51905 12.6731 1.69848 12.5795 1.81996 12.4357C1.79013 12.5112 1.77455 12.5915 1.774 12.6727C1.774 13.0379 2.07012 13.334 2.43536 13.334C2.50729 13.334 2.57522 13.3196 2.63996 13.2984C2.86603 15.0747 3.56352 16.7581 4.65999 18.1737C4.5972 18.2045 4.53974 18.2451 4.48975 18.294C4.4279 18.3553 4.37878 18.4282 4.34519 18.5086C4.31161 18.589 4.29423 18.6752 4.29405 18.7623C4.29388 18.8494 4.31091 18.9356 4.34417 19.0161C4.37743 19.0966 4.42626 19.1698 4.48786 19.2313C4.54946 19.2929 4.62262 19.3417 4.70313 19.375C4.78365 19.4082 4.86993 19.4252 4.95703 19.425C5.04413 19.4247 5.13033 19.4073 5.21068 19.3737C5.29102 19.3401 5.36394 19.2909 5.42524 19.2291C5.45441 19.2003 5.47959 19.1683 5.50157 19.1355L5.51875 19.1527C5.48545 19.1754 5.45417 19.201 5.42524 19.2291C5.30123 19.3532 5.23157 19.5215 5.23157 19.697C5.23157 19.8725 5.30123 20.0408 5.42524 20.1649C5.54943 20.2887 5.71763 20.3582 5.89299 20.3582C6.06834 20.3582 6.23654 20.2887 6.36073 20.1649C6.40956 20.115 6.45004 20.0575 6.48061 19.9947C7.89642 21.0909 9.57969 21.7883 11.3559 22.0147C11.3332 22.0806 11.3212 22.1497 11.3203 22.2193C11.3203 22.5846 11.6164 22.8803 11.9812 22.8803C12.0652 22.8803 12.1447 22.8631 12.2186 22.8351C12.0748 22.9562 11.9812 23.1356 11.9812 23.3386C11.9812 23.514 12.0509 23.6823 12.175 23.8063C12.299 23.9303 12.4672 24 12.6426 24C12.818 24 12.9862 23.9303 13.1102 23.8063C13.2343 23.6823 13.304 23.514 13.304 23.3386C13.304 23.1356 13.2108 22.9562 13.067 22.8351C13.1409 22.8631 13.2204 22.8803 13.304 22.8803C13.6692 22.8803 13.9653 22.5846 13.9653 22.2193C13.9653 22.1474 13.9509 22.0795 13.9297 22.0147C15.7061 21.7884 17.3895 21.0909 18.8054 19.9947C18.8362 20.0554 18.8741 20.1134 18.9249 20.1649C18.9897 20.2311 19.0676 20.2829 19.1537 20.3171C19.2397 20.3512 19.332 20.3669 19.4245 20.3632C19.517 20.3594 19.6077 20.3363 19.6907 20.2953C19.7737 20.2543 19.8472 20.1963 19.9064 20.1251C19.9656 20.0539 20.0093 19.9711 20.0345 19.882C20.0597 19.7929 20.0659 19.6996 20.0527 19.6079C20.0396 19.5163 20.0073 19.4284 19.9581 19.35C19.9088 19.2716 19.8437 19.2044 19.7668 19.1527C19.7724 19.1471 19.778 19.1419 19.7836 19.1355C19.8064 19.1683 19.8312 19.2003 19.86 19.2291C19.9214 19.2905 19.9943 19.3393 20.0745 19.3725C20.1547 19.4058 20.2408 19.423 20.3276 19.423C20.4145 19.423 20.5005 19.406 20.5808 19.3728C20.6611 19.3395 20.734 19.2909 20.7954 19.2295C20.8569 19.1681 20.9057 19.0952 20.9389 19.0149C20.9722 18.9347 20.9894 18.8487 20.9894 18.7618C20.9894 18.6749 20.9724 18.5889 20.9391 18.5086C20.9059 18.4284 20.8572 18.3554 20.7958 18.294C20.7459 18.2452 20.6884 18.2049 20.6256 18.1745C21.7217 16.7583 22.4191 15.0748 22.6456 13.2984C22.71 13.3196 22.7779 13.334 22.8498 13.334C23.2151 13.334 23.5112 13.0379 23.5112 12.6731C23.5112 12.5891 23.494 12.5096 23.4656 12.4357C23.5272 12.5096 23.6042 12.5692 23.6913 12.6102C23.7784 12.6512 23.8733 12.6727 23.9695 12.6731C24.141 12.6671 24.3034 12.5948 24.4225 12.4714C24.5417 12.348 24.6083 12.1832 24.6083 12.0117C24.6083 11.8402 24.5417 11.6753 24.4225 11.552C24.3034 11.4286 24.141 11.3563 23.9695 11.3503ZM13.5805 3.89602C15.0934 4.06888 16.5273 4.66362 17.7184 5.61234C17.6641 5.8577 15.3384 8.45357 15.1198 8.57505C14.5866 8.18999 13.9706 7.93516 13.3211 7.83098C13.2524 7.59041 13.4454 4.10661 13.5805 3.89602ZM11.7055 3.89602C11.8402 4.10621 12.0328 7.59001 11.9637 7.83098C11.3146 7.93542 10.6989 8.19023 10.1658 8.57505C9.94723 8.45357 7.6219 5.8577 7.56755 5.61234C8.75892 4.66401 10.1927 4.06932 11.7055 3.89602ZM6.24364 6.93665C6.4894 6.9906 9.08527 9.31553 9.20675 9.53451C8.82169 10.0677 8.56686 10.6837 8.46268 11.3332C8.22171 11.4019 4.73831 11.2089 4.52772 11.075C4.70082 9.56207 5.29537 8.12817 6.24364 6.93665ZM6.24404 17.0863C5.29571 15.8951 4.70101 14.4615 4.52772 12.9488C4.73831 12.8141 8.22171 12.6215 8.46268 12.6902C8.56723 13.3393 8.82203 13.955 9.20675 14.4881C9.08527 14.7071 6.4902 17.0316 6.24404 17.0863ZM11.7063 20.1262C10.1931 19.9538 8.75901 19.359 7.56795 18.4099C7.6227 18.1641 9.94763 15.5694 10.1666 15.4479C10.6995 15.8327 11.3151 16.0874 11.9641 16.1916C12.0332 16.4322 11.8414 19.9152 11.7063 20.1262ZM12.6426 14.0093C12.3755 14.0168 12.1096 13.9707 11.8607 13.8737C11.6117 13.7766 11.3848 13.6306 11.1932 13.4444C11.0017 13.2581 10.8494 13.0353 10.7455 12.7891C10.6415 12.543 10.588 12.2785 10.588 12.0113C10.5881 11.7441 10.6417 11.4796 10.7458 11.2335C10.8498 10.9874 11.0022 10.7647 11.1938 10.5784C11.3854 10.3922 11.6124 10.2464 11.8614 10.1494C12.1104 10.0525 12.3763 10.0064 12.6434 10.014C13.1634 10.0289 13.6572 10.2459 14.0197 10.619C14.3823 10.9921 14.585 11.4918 14.5849 12.0121C14.5848 12.5323 14.3819 13.032 14.0192 13.405C13.6565 13.7779 13.1626 13.9947 12.6426 14.0093ZM13.5797 20.1262C13.4446 19.9148 13.2528 16.4326 13.3215 16.1916C13.9707 16.0872 14.5864 15.8324 15.1194 15.4475C15.3384 15.569 17.6633 18.1649 17.7176 18.4107C16.5262 19.3588 15.0925 19.9532 13.5797 20.1262ZM19.042 17.0863C18.7962 17.032 16.2007 14.7071 16.0792 14.4877C16.4641 13.9546 16.7189 13.339 16.8233 12.6898C17.0643 12.6211 20.5473 12.8141 20.7583 12.9484C20.5849 14.4612 19.9902 15.8949 19.042 17.0863ZM16.8233 11.3332C16.7191 10.6837 16.4643 10.0677 16.0792 9.53451C16.2007 9.31553 18.7966 6.9906 19.042 6.93585C19.9905 8.12742 20.5852 9.56149 20.7583 11.0746C20.5477 11.2089 17.0639 11.4019 16.8233 11.3332Z" fill="black"/>
</svg>
