<svg width="443" height="443" viewBox="0 0 443 443" fill="none" xmlns="http://www.w3.org/2000/svg">
<path d="M255.921 189.677C263.677 172.721 268 153.865 268 134C268 59.9938 208.006 5.85733e-06 134 5.85733e-06C59.9938 5.85733e-06 0 59.9938 0 134C0 153.865 4.32269 172.721 12.0788 189.677C43.228 158.375 86.3513 139 134 139C181.649 139 224.772 158.375 255.921 189.677Z" fill="#67B26F"/>
<path d="M251.162 255.921C268.118 263.677 286.974 268 306.839 268C380.845 268 440.839 208.006 440.839 134C440.839 59.9938 380.845 3.23491e-06 306.839 0C286.974 -8.68332e-07 268.118 4.32269 251.162 12.0788C282.464 43.228 301.839 86.3513 301.839 134C301.839 181.649 282.464 224.772 251.162 255.921Z" fill="#67B26F"/>
<path d="M187.08 253.161C179.324 270.118 175.001 288.973 175.001 308.839C175.001 382.845 234.995 442.839 309.001 442.839C383.007 442.839 443.001 382.845 443.001 308.839C443.001 288.973 438.678 270.118 430.922 253.161C399.773 284.463 356.65 303.839 309.001 303.839C261.352 303.839 218.229 284.463 187.08 253.161Z" fill="#67B26F"/>
<path d="M190.838 187.079C173.882 179.323 155.026 175 135.161 175C61.155 175 1.16112 234.994 1.16113 309C1.16113 383.006 61.155 443 135.161 443C155.026 443 173.882 438.677 190.838 430.921C159.536 399.772 140.161 356.649 140.161 309C140.161 261.351 159.536 218.228 190.838 187.079Z" fill="#67B26F"/>
</svg>
