<svg width="135" height="47" viewBox="0 0 135 47" fill="none" xmlns="http://www.w3.org/2000/svg">
<path d="M27.1519 20.1238C27.9747 18.3248 28.4333 16.3243 28.4333 14.2167C28.4333 6.36504 22.0683 6.21432e-07 14.2167 6.21432e-07C6.36502 6.21432e-07 0 6.36504 0 14.2167C0 16.3243 0.458614 18.3248 1.28149 20.1238C4.58625 16.8028 9.1614 14.7472 14.2167 14.7472C19.2719 14.7472 23.8471 16.8028 27.1519 20.1238Z" fill="#67B26F"/>
<path d="M26.6469 27.1519C28.4459 27.9748 30.4464 28.4334 32.5539 28.4334C40.4056 28.4334 46.7706 22.0684 46.7706 14.2167C46.7706 6.36504 40.4056 3.43207e-07 32.5539 0C30.4464 -9.21255e-08 28.4459 0.458615 26.6469 1.28149C29.9678 4.58626 32.0235 9.16143 32.0235 14.2167C32.0235 19.272 29.9678 23.8471 26.6469 27.1519Z" fill="#67B26F"/>
<path d="M19.8481 26.8591C19.0253 28.6581 18.5667 30.6586 18.5667 32.7662C18.5667 40.6178 24.9317 46.9829 32.7833 46.9829C40.635 46.9829 47 40.6178 47 32.7662C47 30.6586 46.5414 28.6581 45.7185 26.8591C42.4137 30.1801 37.8386 32.2357 32.7833 32.2357C27.7281 32.2357 23.1529 30.1801 19.8481 26.8591Z" fill="#67B26F"/>
<path d="M20.2469 19.8481C18.4479 19.0252 16.4474 18.5666 14.3399 18.5666C6.48821 18.5666 0.123189 24.9316 0.123189 32.7833C0.12319 40.635 6.48821 47 14.3399 47C16.4474 47 18.4479 46.5414 20.2469 45.7185C16.926 42.4137 14.8703 37.8386 14.8703 32.7833C14.8703 27.728 16.926 23.1529 20.2469 19.8481Z" fill="#67B26F"/>
<path d="M64.9312 28.896L64.6576 23.2112L74.8416 12.48H80.3136L71.1328 22.36L68.3968 25.2784L64.9312 28.896ZM60.5232 33.76V12.48H65.4176V33.76H60.5232ZM75.0848 33.76L67.5152 24.488L70.7376 20.992L80.8304 33.76H75.0848ZM83.0263 33.76V12.48H87.0999L96.1591 27.4976H94.0007L102.908 12.48H106.951L107.012 33.76H102.391L102.361 19.5632H103.212L96.0983 31.5104H93.8791L86.6135 19.5632H87.6471V33.76H83.0263ZM112.061 33.76V12.48H116.134L128.689 27.8016H126.713V12.48H131.577V33.76H127.534L114.949 18.4384H116.925V33.76H112.061Z" fill="black"/>
</svg>
